<svg width="32" height="32" viewBox="0 0 32 32" fill="none" xmlns="http://www.w3.org/2000/svg">
<path d="M24.0266 16.44L22.4 14.8133C22.0133 14.48 21.7866 13.9866 21.7733 13.44C21.7466 12.84 21.9866 12.24 22.4266 11.8L24.0266 10.2C25.4133 8.81329 25.9333 7.47996 25.4933 6.42663C25.0666 5.38663 23.7466 4.81329 21.8 4.81329H7.86664V3.66663C7.86664 3.11996 7.4133 2.66663 6.86664 2.66663C6.31997 2.66663 5.86664 3.11996 5.86664 3.66663V28.3333C5.86664 28.88 6.31997 29.3333 6.86664 29.3333C7.4133 29.3333 7.86664 28.88 7.86664 28.3333V21.8266H21.8C23.72 21.8266 25.0133 21.24 25.4533 20.1866C25.8933 19.1333 25.3866 17.8133 24.0266 16.44Z" fill="#646B82"/>
</svg>
