<svg width="181" height="202" viewBox="0 0 181 202" fill="none" xmlns="http://www.w3.org/2000/svg">
<rect x="11.9675" y="92.945" width="156.549" height="91.7157" rx="7.90653" fill="#BABECA"/>
<path d="M161.686 154.091H21.6858L21.6861 54.063C36.6191 6.82758 140.219 6.82751 161.686 54.0626V154.091Z" fill="#A0A5B6"/>
<mask id="mask0_500_22716" style="mask-type:alpha" maskUnits="userSpaceOnUse" x="21" y="19" width="141" height="152">
<path d="M161.686 170.909H21.6858V51.6839C43.6135 6.67863 138.915 9.04719 161.686 54.0528V170.909Z" fill="#5E7887"/>
</mask>
<g mask="url(#mask0_500_22716)">
<path opacity="0.5" d="M64.9413 0.438568V66.0628L15.1301 81.0852L49.1282 49.4591V4.39183L64.9413 0.438568Z" fill="#868CA2"/>
<path opacity="0.5" d="M49.4133 21.6485V87.2727L-19.6584 104.014L-16.4958 74.7599L5.64245 26.53L49.4133 21.6485Z" fill="#868CA2"/>
<path opacity="0.5" d="M79.9638 -0.352112V65.2721L129.775 80.2945L126.612 51.0403L104.474 2.8105L79.9638 -0.352112Z" fill="#868CA2"/>
<path opacity="0.5" d="M157.448 78.7132L133.728 25.7395L174.051 46.2964L192.236 81.8758L157.448 78.7132Z" fill="#868CA2"/>
<path d="M161.686 166.364H21.6858L21.6861 67.5861C36.6191 18.6835 140.219 18.6835 161.686 67.5857V166.364Z" fill="#868CA2"/>
</g>
<mask id="mask1_500_22716" style="mask-type:alpha" maskUnits="userSpaceOnUse" x="32" y="47" width="120" height="119">
<path d="M151.122 165.685H32.5244L32.5247 80.2945C47.6004 36.0179 130.016 36.0181 151.122 80.2942V165.685Z" fill="#4E6471"/>
</mask>
<g mask="url(#mask1_500_22716)">
<path d="M151.122 165.685H32.5244L32.5247 81.3418C32.5247 80.6484 32.638 79.9488 32.878 79.2982C48.6851 36.4478 128.576 36.3504 150.484 79.0054C150.915 79.8431 151.122 80.7829 151.122 81.7247V165.685Z" fill="#868CA2"/>
<path opacity="0.2" d="M38.8498 168.057V86.1072C51.5002 39.9713 130.566 47.6434 146.379 84.8041V166.754L154.285 168.057L156.657 66.0627L132.938 33.6461L31.7339 47.8778L23.8274 165.685L38.8498 168.057Z" fill="#262831"/>
<rect x="78.3826" y="47.0871" width="11.0691" height="121.761" fill="#646B82"/>
<rect x="92.614" y="47.0871" width="14.2318" height="123.342" fill="#646B82"/>
<circle cx="108.427" cy="121.408" r="7.90653" stroke="#727992" stroke-width="3.16261"/>
<path d="M116.334 126.152C116.334 131.63 112.574 135.64 108.427 135.64C104.281 135.64 100.521 131.63 100.521 126.152C100.521 120.675 104.281 116.665 108.427 116.665C112.574 116.665 116.334 120.675 116.334 126.152Z" stroke="#494E5F" stroke-width="3.16261"/>
<rect x="89.4517" y="29.6927" width="3.16261" height="17.3944" fill="#3E4250"/>
<circle cx="108.427" cy="124.571" r="7.90653" stroke="#646B82" stroke-width="3.16261"/>
<circle cx="72.0572" cy="121.408" r="7.90653" stroke="#727992" stroke-width="3.16261"/>
<path d="M79.9637 126.152C79.9637 131.63 76.2039 135.64 72.0572 135.64C67.9104 135.64 64.1506 131.63 64.1506 126.152C64.1506 120.675 67.9104 116.665 72.0572 116.665C76.2039 116.665 79.9637 120.675 79.9637 126.152Z" stroke="#494E5F" stroke-width="3.16261"/>
<circle cx="72.0572" cy="124.571" r="7.90653" stroke="#646B82" stroke-width="3.16261"/>
<rect x="68.8945" y="108.758" width="6.32522" height="7.90653" rx="1.58131" fill="#868CA2"/>
<rect x="105.265" y="108.758" width="6.32522" height="7.90653" rx="1.58131" fill="#868CA2"/>
<rect x="68.8945" y="110.339" width="6.32522" height="7.90653" rx="1.58131" fill="#BABECA"/>
<rect x="105.265" y="110.339" width="6.32522" height="7.90653" rx="1.58131" fill="#BABECA"/>
<path d="M57.0724 185.779V165H61.7404V185.779H57.0724Z" fill="#31343F"/>
<rect x="37.2686" y="156.197" width="45.8579" height="9.48784" fill="#646B82"/>
<rect x="92.614" y="156.197" width="55.3457" height="9.48784" fill="#646B82"/>
</g>
</svg>
