<svg width="111" height="74" viewBox="0 0 111 74" fill="none" xmlns="http://www.w3.org/2000/svg">
<path d="M13.2596 70.39C13.2596 70.39 -0.87043 35.73 5.47957 19.68C11.8296 3.62997 49.0996 4.60997 56.9596 19.68C64.8296 34.75 53.6196 71.36 53.6196 71.36L13.2596 70.38V70.39Z" fill="url(#paint0_radial_1699_4145)"/>
<path d="M13.2599 71.37H76.2699L87.6699 8.36C87.6699 8.36 57.9699 1.39002 19.6999 9.25002C19.6999 9.25002 4.84988 12.87 3.83988 27.22C2.82988 41.56 13.2599 71.37 13.2599 71.37Z" fill="url(#paint1_linear_1699_4145)"/>
<path d="M64.87 71.37C64.87 71.37 57.1 35.73 62.39 19.69C67.68 3.63998 98.74 4.61998 105.29 19.69C111.84 34.76 98.5 70.4 98.5 70.4L64.87 71.38V71.37Z" fill="url(#paint2_linear_1699_4145)"/>
<g style="mix-blend-mode:multiply" opacity="0.3">
<path d="M92.3496 13.6099C90.9596 11.6699 77.2196 13.7299 75.2796 15.5499C73.3396 17.3699 73.6996 62.5099 74.6696 63.8899C75.6396 65.2699 88.5696 64.7799 89.2596 64.7599C89.9496 64.7499 92.3496 13.5999 92.3496 13.5999V13.6099Z" fill="#D42F55"/>
</g>
<g style="mix-blend-mode:multiply" opacity="0.3">
<path d="M98.22 15.2699C96.06 15.0699 90.59 65.2299 91.2 65.3099C91.81 65.3899 96.09 64.3099 99.24 56.4699C102.39 48.6199 103.97 29.5999 103.48 25.4399C102.99 21.2799 98.23 15.2799 98.23 15.2799L98.22 15.2699Z" fill="#D42F55"/>
</g>
<path d="M99.4199 71.4C99.2599 71.91 99.1099 72.34 98.9899 72.69C98.7699 73.31 98.6399 73.67 98.6099 73.75V73.77L93.9899 73.64C93.9899 73.64 93.9899 73.64 93.9899 73.61C94.0299 73.52 94.1499 73.2 94.3699 72.67C94.8399 71.46 95.7099 69.17 96.7399 66.18C100.41 55.64 106.19 36.41 104.05 25.27C101.4 11.45 85.0899 4.52997 73.2699 8.48997C73.1699 8.51997 73.0899 8.55998 73.0099 8.58998C70.3499 9.49998 67.9499 11 65.9799 13.07C65.9499 13.1 65.9199 13.13 65.8799 13.17C75.9199 1.96 104.44 0.579975 107.09 21.99C109.3 39.9 101.95 63.86 99.4099 71.4H99.4199Z" fill="url(#paint3_linear_1699_4145)"/>
<path d="M71.6196 10.22L72.6496 65.76C72.6496 65.76 73.9896 17.41 71.6196 10.22Z" fill="#8D001A"/>
<path d="M93.4299 10.9299L89.8599 66.0399C89.8599 66.0399 94.4499 27.5799 93.4299 10.9299Z" fill="#8D001A"/>
<path d="M60.5499 73.91H52.7198C52.7198 73.91 46.2698 41.81 48.9298 24.06C52.0298 3.36996 71.0798 -1.67003 87.6798 1.40997C87.6798 1.40997 69.4498 0.289968 62.7098 12.69C55.9598 25.09 60.5598 73.91 60.5598 73.91H60.5499Z" fill="url(#paint4_linear_1699_4145)"/>
<path d="M109.1 48.09C106.85 61.86 103.35 73.77 103.35 73.77H98.6098C98.6098 73.77 98.6098 73.77 98.6098 73.75C98.6398 73.67 98.7598 73.31 98.9898 72.69C99.1098 72.34 99.2498 71.91 99.4198 71.41C101.91 63.9 109.13 40.25 107.1 23.21C105.38 8.83996 86.2898 3.52996 73.2698 8.49996C73.1698 8.52996 73.0898 8.56997 73.0098 8.59997C70.3298 9.64997 67.9298 11.14 65.9798 13.08C65.9498 13.11 65.9198 13.14 65.8798 13.18C63.9298 15.16 62.4598 17.61 61.6998 20.53C57.9998 34.71 61.7798 55.19 64.2398 65.77C65.0198 69.1 65.6598 72.44 65.8998 73.28L66.0098 73.64L60.5198 73.93C60.5198 73.93 51.2898 42.73 57.9398 19.27C66.2498 -10.05 109.04 -0.790039 110.8 23.59C111.34 30.99 110.42 39.87 109.07 48.1L109.1 48.09Z" fill="url(#paint5_linear_1699_4145)"/>
<path d="M60.1997 36.3999C60.1997 36.3999 86.6297 37.2499 105.91 37.1999C105.91 37.1999 105.22 43.1499 104.95 44.6399C104.68 46.1299 60.5497 44.6399 60.5497 44.6399L60.1997 36.3999Z" fill="url(#paint6_linear_1699_4145)"/>
<path d="M60.1997 36.4C60.1997 36.4 90.3497 37.81 105.91 37.2C105.91 37.2 83.8297 35.13 60.1997 36.4Z" fill="url(#paint7_linear_1699_4145)"/>
<path d="M12.5398 73.78C12.5398 73.78 -3.14019 45.06 0.639808 23.09C3.76981 4.88997 26.1198 5.17996 26.1198 5.17996C26.1198 5.17996 13.9198 7.58996 8.72981 19.99C3.53981 32.39 18.5798 73.78 18.5798 73.78H12.5498H12.5398Z" fill="url(#paint8_linear_1699_4145)"/>
<path d="M27.92 70.39C27.92 70.39 16.22 42.96 18.71 24.85C21.2 6.74001 38.71 6.37 38.71 6.37C38.71 6.37 23.57 8.99999 19.92 22.68C15.45 39.41 27.92 70.39 27.92 70.39Z" fill="#9F001A"/>
<path d="M44.5798 70.39C44.5798 70.39 34.6698 37.5 38.4998 19.93C42.0298 3.76 55.9398 5.51999 55.9398 5.51999C55.9398 5.51999 42.9298 4.01001 38.9798 21.76C34.7898 40.56 44.5698 70.4 44.5698 70.4L44.5798 70.39Z" fill="#9F001A"/>
<path d="M41.3596 6.15C41.3596 6.15 33.7896 3.80002 22.3396 5.51002C10.8996 7.22002 5.60964 20.34 7.06964 36.76C8.52964 53.18 18.5596 73.78 18.5596 73.78H22.9296L27.8496 70.39L21.8296 70.31C21.8296 70.31 8.37964 45 11.6196 24.36C14.3096 7.22 41.3496 6.15 41.3496 6.15H41.3596Z" fill="url(#paint9_linear_1699_4145)"/>
<path d="M9.79979 43.62C9.79979 43.62 8.17979 38.59 8.44979 36.4C8.71979 34.21 48.2798 34.03 48.2798 34.03L48.6498 43.62C48.6498 43.62 21.2798 45.91 9.79979 43.62Z" fill="url(#paint10_linear_1699_4145)"/>
<path d="M25.9599 42.78L26.2799 40.78C26.2799 40.78 24.7999 39.05 25.2699 37.94C25.7399 36.83 27.3299 36.75 27.8199 37.32C28.3099 37.89 27.4699 40.64 27.4699 40.64L28.5399 42.8299L25.9699 42.7999L25.9599 42.78Z" fill="#9F001A"/>
<g style="mix-blend-mode:multiply" opacity="0.5">
<path d="M6.93969 28.3099C7.55969 30.3799 11.2897 35.3199 11.2897 35.3199C11.2897 35.3199 11.1797 23.2799 16.3697 16.7999C21.5697 10.3299 37.6097 6.37993 37.6097 6.37993C37.6097 6.37993 27.8497 2.66992 18.7397 7.04992C9.61969 11.4299 6.92969 28.3099 6.92969 28.3099H6.93969Z" fill="#BE2F55"/>
</g>
<g style="mix-blend-mode:multiply" opacity="0.5">
<path d="M60.25 31.11C60.57 32.66 64.5 14.64 84.39 14.5C104.28 14.36 103.26 29.75 105.91 30.38C108.56 31.01 109.26 13.36 95.69 9.10996C82.12 4.84996 71.19 7.82998 65.76 13.32C60.33 18.81 60.26 31.11 60.26 31.11H60.25Z" fill="#BE2F55"/>
</g>
<g style="mix-blend-mode:multiply" opacity="0.5">
<path d="M61.6198 51.99C61.6598 46.67 92.5398 46.91 96.4298 46.43C100.32 45.94 100.81 54.52 102.63 51.99C104.45 49.47 104.95 44.63 104.95 44.63C104.95 44.63 86.7998 44.82 60.5498 44.63L61.6198 51.99Z" fill="#BE2F55"/>
</g>
<g style="mix-blend-mode:multiply" opacity="0.5">
<path d="M66.03 73.63C66.03 73.63 62.04 73.85 60.54 72.57C59.04 71.29 54.42 44.8 55.82 31.75C57.22 18.71 63.86 7.76002 67.97 5.85002C72.08 3.94002 64.44 9.69 61.17 20.11C57.91 30.53 59.23 56.89 66.03 73.63Z" fill="#FF6D55"/>
</g>
<path d="M98.7497 72.67C98.6797 73.25 98.6197 73.65 98.6197 73.76V73.78L94.0097 73.62L66.5997 73.66L66.0397 73.64L65.9297 73.28L63.9697 65.77H64.2697C67.1097 65.8 89.4197 65.98 96.7497 66.19C98.1397 66.23 98.9897 66.28 99.0797 66.32C99.4897 66.52 99.0197 70.65 98.7597 72.68L98.7497 72.67Z" fill="url(#paint11_linear_1699_4145)"/>
<path d="M15.54 66.9199C16.56 66.4799 51.6 66.9199 51.6 66.9199L52.72 73.9099L18.58 73.7799L15.55 66.9199H15.54Z" fill="url(#paint12_linear_1699_4145)"/>
<path d="M15.54 66.92L19.35 65.0299C19.35 65.0299 35.71 67.5899 51.06 63.6899L51.6 66.92H15.54Z" fill="url(#paint13_linear_1699_4145)"/>
<path d="M8.44971 36.4L11.2997 35.32C11.2997 35.32 36.3797 33.21 48.2797 34.03C48.2797 34.03 26.1397 36.31 8.44971 36.4Z" fill="url(#paint14_linear_1699_4145)"/>
<g style="mix-blend-mode:multiply" opacity="0.5">
<path d="M9.7998 43.62C9.7998 43.62 13.3098 51.44 14.6898 52.46C16.0698 53.48 14.6298 47.4 30.2998 46.43C45.9698 45.46 49.3298 51.07 49.3298 51.07L48.6498 43.62C48.6498 43.62 23.4598 44.58 9.7998 43.62Z" fill="#BE2F55"/>
</g>
<g style="mix-blend-mode:soft-light">
<path d="M49.8099 22.36C49.5299 24.73 55.1599 23.64 55.9499 23.21C56.7399 22.78 60.6899 11.97 61.6599 10.2C62.6299 8.44004 57.1699 9.55003 55.5599 10.44C53.9599 11.34 50.4699 16.7 49.8099 22.35V22.36Z" fill="white"/>
</g>
<g style="mix-blend-mode:soft-light">
<path d="M6.34994 25.92C5.97994 27.56 0.189941 26.7399 0.189941 26.7399C0.189941 26.7399 1.46994 17.65 4.07994 14.78C6.68994 11.91 9.62994 10.8199 10.8599 11.3299C12.0899 11.8399 8.16994 17.8 6.34994 25.92Z" fill="white"/>
</g>
<g style="mix-blend-mode:multiply" opacity="0.2">
<path d="M0.189937 27.92C0.0899366 28.38 0.329937 36.15 0.789937 36.96C1.24994 37.77 5.53993 38.27 6.34993 37.95C7.16993 37.64 6.52993 28.65 6.34993 27.92C6.16993 27.19 0.189937 27.92 0.189937 27.92Z" fill="#E02774"/>
</g>
<g style="mix-blend-mode:multiply" opacity="0.2">
<path d="M50.38 23.83C48.98 23.67 49.55 31.88 49.33 32.82C49.11 33.75 53.66 33.57 54.12 33.3C54.58 33.03 55.9 26.01 55.56 24.73C55.22 23.45 50.38 23.83 50.38 23.83Z" fill="#E02774"/>
</g>
<g style="mix-blend-mode:multiply" opacity="0.2">
<path d="M47.6499 35.12C47.4499 34.11 32.5199 36.2 31.0599 36.67C29.5999 37.13 28.5399 43.22 29.5699 43.62C30.5999 44.02 47.9499 43.1 48.2799 42.81C48.6099 42.52 47.6499 35.12 47.6499 35.12Z" fill="#E02774"/>
</g>
<g style="mix-blend-mode:multiply" opacity="0.5">
<path d="M60.5996 37.95C61.0596 36.35 88.0396 37.8399 90.8596 39.0799C93.6896 40.3199 91.7696 43.5899 90.8596 44.1499C89.9496 44.7099 61.3096 44.5099 60.9496 44.1499C60.5896 43.7899 60.5996 37.95 60.5996 37.95Z" fill="#FF6D55"/>
</g>
<path d="M60.1997 12.88C60.0797 10.45 54.1197 15.3201 54.2497 19.1401C54.3697 22.9701 57.9797 19.2601 57.9797 19.2601L60.2097 12.88H60.1997Z" fill="white"/>
<path d="M9.79979 15.8C10.6898 11.34 4.27979 20.3 4.27979 23.22C4.27979 26.14 8.13979 24.07 9.79979 15.8Z" fill="white"/>
<path d="M10.85 36.37C8.77997 36.94 14.19 39.46 16.26 39.48C18.33 39.5 21.85 36 21.85 36L10.85 36.37Z" fill="white"/>
<path d="M36.9797 66.9199C34.8697 65.8099 45.5497 64.3899 47.4597 64.9299C49.3697 65.4799 50.7397 67.3899 50.7397 67.3899L36.9697 66.9099L36.9797 66.9199Z" fill="white"/>
<g style="mix-blend-mode:multiply" opacity="0.5">
<path d="M10.7598 70.25C10.7598 70.25 12.8298 73.66 30.2298 73.14C47.6298 72.61 60.5398 72.57 60.5398 72.57L66.4298 73.64L60.5398 73.91L12.5298 73.78L10.7598 70.25Z" fill="#BE2F55"/>
</g>
<g style="mix-blend-mode:multiply" opacity="0.5">
<path d="M100.8 54.27C100.8 54.27 96.5198 63.21 94.5998 64.3C92.6898 65.39 67.9898 64.3 65.7498 64.3C63.5098 64.3 62.7798 58.76 62.7798 58.76L63.9698 65.76L97.6998 66.11L100.8 54.27Z" fill="#BE2F55"/>
</g>
<g style="mix-blend-mode:soft-light">
<path d="M19.4 25.13C19.14 27.46 35.98 24 36.8 22.45C37.62 20.9 43.91 9.04995 46.19 7.08995C48.47 5.12995 34.5599 6.79996 30.7799 9.34996C26.9899 11.9 20.34 16.77 19.4 25.13Z" fill="#FF9CA1"/>
</g>
<g style="mix-blend-mode:soft-light">
<path d="M39.6197 21.72C39.5297 23.82 45.5497 22.63 46.7297 22.08C47.9097 21.53 54.1096 9.37996 57.2096 7.07996C60.3096 4.77996 47.7997 6.68996 44.9397 9.82996C42.0797 12.97 39.6197 21.71 39.6197 21.71V21.72Z" fill="#FF9CA1"/>
</g>
<g style="mix-blend-mode:soft-light">
<path d="M18.7096 24.8499C16.3796 25.9999 13.3296 25.2999 12.9396 23.8299C12.5496 22.3599 17.3696 14.4699 22.6496 12.0099C27.9296 9.54995 19.7496 13.5499 18.7096 24.8399V24.8499Z" fill="#FF9CA1"/>
</g>
<g style="mix-blend-mode:multiply" opacity="0.5">
<path d="M109.1 48.1C106.85 61.86 103.35 73.78 103.35 73.78H98.6096L93.9896 73.65C93.9896 73.65 93.9896 73.65 93.9896 73.62L66.5796 73.66L98.7496 72.68C98.7496 72.68 98.8396 72.68 98.9796 72.71C99.7796 72.8 102.42 73.09 102.97 72.95C103.61 72.78 108.95 48.71 109.08 48.11L109.1 48.1Z" fill="#BE2F55"/>
</g>
<g style="mix-blend-mode:multiply" opacity="0.5">
<path d="M15.54 66.92C15.54 66.92 11.37 54.81 11.73 53.54C12.09 52.26 18.21 62.91 20.94 64.21C23.67 65.51 32.24 65.76 32.24 65.76C32.24 65.76 20.95 65.58 19.35 65.03C17.75 64.48 15.54 66.92 15.54 66.92Z" fill="#BE2F55"/>
</g>
<g style="mix-blend-mode:multiply" opacity="0.3">
<path d="M27.4098 64.82C25.9198 65.03 22.9298 50.1 24.0998 48.55C25.2698 47 35.5198 48.23 37.6198 49.35C39.7198 50.47 41.8198 64.06 41.3598 64.82C40.8998 65.58 28.8698 64.62 27.4098 64.82Z" fill="#D42F55"/>
</g>
<g style="mix-blend-mode:multiply" opacity="0.3">
<path d="M41.9897 48.55C40.5297 48.35 43.3597 63.19 44.1797 63.7C44.9997 64.21 49.7597 63.72 50.1997 62.39C50.6397 61.06 49.3997 52.69 48.6497 51.18C47.8997 49.67 41.9997 48.56 41.9997 48.56L41.9897 48.55Z" fill="#D42F55"/>
</g>
<g style="mix-blend-mode:multiply" opacity="0.2">
<path d="M10.7198 43.3299C10.2898 41.6299 15.3998 39.93 18.9898 40.41C22.5798 40.9 24.4098 43.72 24.4098 43.72L10.7298 43.3299H10.7198Z" fill="#E02774"/>
</g>
<path d="M6.53984 55.6C7.09984 52.91 8.48984 56.89 8.53984 58.19C8.58984 59.48 5.86984 58.84 6.53984 55.6Z" fill="white"/>
<defs>
<radialGradient id="paint0_radial_1699_4145" cx="0" cy="0" r="1" gradientUnits="userSpaceOnUse" gradientTransform="translate(21.6196 27.42) scale(44.09 44.09)">
<stop stop-color="#CE5411"/>
<stop offset="1" stop-color="#B42B00"/>
</radialGradient>
<linearGradient id="paint1_linear_1699_4145" x1="45.7099" y1="71.37" x2="45.7099" y2="5.51001" gradientUnits="userSpaceOnUse">
<stop stop-color="#B42B00"/>
<stop offset="1" stop-color="#CE5411"/>
</linearGradient>
<linearGradient id="paint2_linear_1699_4145" x1="83.82" y1="71.37" x2="83.82" y2="8.00998" gradientUnits="userSpaceOnUse">
<stop stop-color="#A71100"/>
<stop offset="1" stop-color="#B53303"/>
</linearGradient>
<linearGradient id="paint3_linear_1699_4145" x1="86.7099" y1="73.78" x2="86.7099" y2="5.17999" gradientUnits="userSpaceOnUse">
<stop offset="0.05" stop-color="#FF3F00"/>
<stop offset="1" stop-color="#D92E03"/>
</linearGradient>
<linearGradient id="paint4_linear_1699_4145" x1="67.9698" y1="73.91" x2="67.9698" y2="0.579966" gradientUnits="userSpaceOnUse">
<stop stop-color="#FF9600"/>
<stop offset="1" stop-color="#FFA900"/>
</linearGradient>
<linearGradient id="paint5_linear_1699_4145" x1="83.2698" y1="73.92" x2="83.2698" y2="0.969957" gradientUnits="userSpaceOnUse">
<stop stop-color="#FF7C00"/>
<stop offset="1" stop-color="#FF6800"/>
</linearGradient>
<linearGradient id="paint6_linear_1699_4145" x1="60.1997" y1="40.8499" x2="105.9" y2="40.8499" gradientUnits="userSpaceOnUse">
<stop stop-color="#FF7A00"/>
<stop offset="1" stop-color="#FF6800"/>
</linearGradient>
<linearGradient id="paint7_linear_1699_4145" x1="83.0497" y1="37.35" x2="83.0497" y2="35.98" gradientUnits="userSpaceOnUse">
<stop stop-color="#FF9600"/>
<stop offset="1" stop-color="#FFA900"/>
</linearGradient>
<linearGradient id="paint8_linear_1699_4145" x1="13.0798" y1="73.78" x2="13.0798" y2="5.17997" gradientUnits="userSpaceOnUse">
<stop stop-color="#FF9600"/>
<stop offset="1" stop-color="#FFA900"/>
</linearGradient>
<linearGradient id="paint9_linear_1699_4145" x1="24.0996" y1="73.78" x2="24.0996" y2="4.89001" gradientUnits="userSpaceOnUse">
<stop stop-color="#FF6400"/>
<stop offset="1" stop-color="#FF6800"/>
</linearGradient>
<linearGradient id="paint10_linear_1699_4145" x1="28.5298" y1="44.64" x2="28.5298" y2="34.03" gradientUnits="userSpaceOnUse">
<stop stop-color="#FF9600"/>
<stop offset="1" stop-color="#FFA900"/>
</linearGradient>
<linearGradient id="paint11_linear_1699_4145" x1="63.9597" y1="69.77" x2="99.2297" y2="69.77" gradientUnits="userSpaceOnUse">
<stop stop-color="#FF7A00"/>
<stop offset="1" stop-color="#FF6800"/>
</linearGradient>
<linearGradient id="paint12_linear_1699_4145" x1="34.12" y1="73.9099" x2="34.12" y2="66.7299" gradientUnits="userSpaceOnUse">
<stop stop-color="#FF9600"/>
<stop offset="1" stop-color="#FFA900"/>
</linearGradient>
<linearGradient id="paint13_linear_1699_4145" x1="33.56" y1="66.92" x2="33.56" y2="63.6999" gradientUnits="userSpaceOnUse">
<stop stop-color="#FFDE00"/>
<stop offset="1" stop-color="#FFE834"/>
</linearGradient>
<linearGradient id="paint14_linear_1699_4145" x1="28.3597" y1="36.4" x2="28.3597" y2="33.84" gradientUnits="userSpaceOnUse">
<stop stop-color="#FFDE00"/>
<stop offset="1" stop-color="#FFE834"/>
</linearGradient>
</defs>
</svg>
