<svg width="66" height="63" viewBox="0 0 66 63" fill="none" xmlns="http://www.w3.org/2000/svg">
<path d="M65.3598 33.5C65.0798 37.65 64.0798 41.53 62.5198 45.02C62.0198 46.14 61.4698 47.22 60.8398 48.26C59.5898 50.39 58.0999 52.33 56.4499 54.04C56.4499 54.04 56.4098 54.07 56.3798 54.1C55.6598 54.84 54.8998 55.55 54.1098 56.19C54.0798 56.21 54.0498 56.24 54.0298 56.26C52.9098 57.17 51.7298 57.99 50.4998 58.71C50.4598 58.73 50.4298 58.76 50.3898 58.77C46.7798 60.86 42.7098 62.08 38.4198 62.2H38.3398C38.1498 62.2 37.9498 62.2 37.7598 62.2C37.4598 62.2 37.1498 62.2 36.8598 62.18C36.6998 62.18 36.5398 62.16 36.3798 62.16C36.2398 62.16 36.0898 62.14 35.9498 62.13C35.7798 62.13 35.6298 62.11 35.4598 62.09C35.3598 62.09 35.2698 62.07 35.1698 62.06C33.7498 61.91 32.3598 61.64 31.0098 61.25C30.1298 61 29.2598 60.7 28.4098 60.36C18.6798 56.36 11.3298 46.08 10.7598 33.48C10.6598 31.23 10.7698 29.02 11.0898 26.88C12.6898 16.05 19.3598 6.90004 28.5598 2.96004C30.6198 2.07004 32.8098 1.46005 35.0698 1.15005C35.1498 1.15005 35.2298 1.13005 35.3098 1.12005C35.3598 1.12005 35.4198 1.10004 35.4698 1.10004C36.3798 0.990044 37.2998 0.930044 38.2298 0.920044H38.4198C38.5898 0.920044 38.7698 0.920044 38.9398 0.920044C46.7898 1.08004 53.7498 4.94004 58.5498 10.95C58.6398 11.06 58.7198 11.15 58.7598 11.21C58.8198 11.29 58.8498 11.32 58.8498 11.32C63.4498 17.25 65.9298 25.1 65.3698 33.47L65.3598 33.5Z" fill="url(#paint0_linear_1699_3970)"/>
<path d="M39.4599 62.15L38.4099 62.22H38.3299L32.7499 62.57H32.6299L30.1599 62.73H30.1299L28.5099 62.83H28.3999V62.72V62.25V61.45V60.38L28.4899 26.18L28.5499 2.97002V1.36002V0.210022V0.150024L32.3399 0.440022L38.8999 0.940022V0.970024V1.45002V1.59002L38.9099 2.24002V2.56002V2.64002L39.0499 19.24L39.3999 58.73L39.4199 60.61V60.8V60.87V61.6V61.94V62.16L39.4599 62.15Z" fill="url(#paint1_linear_1699_3970)"/>
<path d="M56.76 33.5C56.55 37.78 55.58 41.78 54.03 45.36C54.03 45.36 54.03 45.38 54.02 45.4C53.97 45.52 53.81 45.91 53.53 46.47C53.41 46.75 53.27 47.02 53.13 47.29C51.81 49.87 50.17 52.19 48.28 54.21C48.02 54.5 47.75 54.78 47.48 55.05C45.12 57.38 42.42 59.26 39.46 60.59C38.08 61.21 36.65 61.71 35.16 62.07C34.76 62.17 34.35 62.26 33.94 62.35C33.6 62.42 33.26 62.48 32.9 62.53C32.86 62.53 32.81 62.55 32.77 62.55C31.57 62.73 30.34 62.82 29.09 62.82C28.9 62.82 28.7 62.82 28.51 62.82H28.4C25.92 62.75 23.51 62.3 21.22 61.55C20.91 61.46 20.61 61.36 20.32 61.26C20.26 61.24 20.2 61.22 20.13 61.2C17.53 60.22 15.08 58.82 12.87 57.08C12.87 57.06 12.84 57.06 12.83 57.05C11.1 55.68 9.50001 54.09 8.08001 52.32C4.07001 47.31 1.40001 40.8 0.920006 33.5C0.560006 28.03 1.47001 22.77 3.41001 18.1C3.41001 18.1 3.48001 17.92 3.63001 17.61C6.92001 9.99002 12.94 4.05002 20.42 1.51003C20.44 1.51003 20.46 1.51002 20.48 1.49002C20.92 1.33002 21.38 1.19002 21.83 1.07002C22.08 1.00002 22.32 0.940024 22.55 0.880024C22.99 0.770024 23.41 0.680021 23.84 0.600021C24.09 0.550021 24.35 0.510024 24.6 0.470024C25.89 0.260024 27.21 0.150024 28.55 0.150024C29.89 0.150024 31.1 0.250022 32.34 0.440022C33.4 0.600022 34.43 0.820026 35.44 1.12003C35.49 1.12003 35.53 1.12002 35.57 1.15002C35.96 1.26002 36.34 1.38002 36.73 1.52002C36.75 1.52002 36.77 1.52002 36.8 1.54002C37.51 1.79002 38.23 2.07003 38.92 2.37003C50.06 7.33003 57.43 19.72 56.75 33.51L56.76 33.5Z" fill="url(#paint2_linear_1699_3970)"/>
<g style="mix-blend-mode:multiply" opacity="0.2">
<path d="M46.0699 9.3C45.8499 10.63 43.3399 15.07 39.0799 19.24C36.2699 21.98 32.7099 24.61 28.4899 26.19C26.7099 26.86 24.7999 27.35 22.7799 27.58C17.9199 28.13 14.0599 27.73 11.0799 26.9C5.48993 25.32 2.95992 22.13 3.03992 20.7C3.03992 20.7 4.90993 15.48 8.96993 10.31C11.7499 6.78 15.5499 3.26 20.4299 1.5C20.4499 1.5 20.4699 1.5 20.4899 1.48C20.9299 1.32 21.3899 1.18 21.8399 1.06C21.9999 1.01 22.1699 0.959999 22.3399 0.919999C22.4199 0.899999 22.4899 0.88 22.5699 0.87C23.0099 0.76 23.4299 0.670001 23.8599 0.590001C24.1099 0.540001 24.3699 0.5 24.6199 0.46C25.9699 0.26 27.2999 0.180002 28.5799 0.200002C30.8499 0.220002 32.9899 0.570004 34.9299 1.12C34.9799 1.12 35.0299 1.14 35.0799 1.16C36.4799 1.56 37.7899 2.06 38.9699 2.63C39.5299 2.89 40.0599 3.17 40.5699 3.46C41.1299 3.78 41.7299 4.17 42.3499 4.6C44.8899 6.42 46.2699 8.31 46.1099 9.29L46.0699 9.3Z" fill="#F42774"/>
</g>
<g style="mix-blend-mode:soft-light">
<path d="M4.14981 45.08C5.40981 46.95 23.5598 39.09 32.1398 36.73C40.8098 34.35 54.2198 36.87 55.4398 35.91C56.6598 34.94 55.9898 20.7 51.1398 13.63C46.1498 6.34996 46.1098 14.02 40.7998 17.56C35.5698 21.05 14.5998 27.13 10.1198 26.67C5.62981 26.22 4.07982 24.28 2.40982 24.5C0.739822 24.73 -2.03019 35.91 4.14981 45.07V45.08Z" fill="white"/>
</g>
<path d="M46.73 33.5101C46.43 44.1001 39.09 52.4301 30.07 53.1601C29.63 53.2001 29.2 53.2201 28.76 53.2201C19.14 53.2201 10.95 44.6001 10.43 33.5101C9.89001 21.9001 17.92 12.0701 28.39 12.0701C28.87 12.0701 29.35 12.1001 29.82 12.1401C39.61 13.0001 47.04 22.4501 46.72 33.5101H46.73Z" fill="url(#paint3_linear_1699_3970)"/>
<path d="M46.7298 33.51C46.4298 44.1 39.0898 52.43 30.0698 53.16C21.0498 52.44 13.5898 44.1 13.1598 33.51C12.7098 22.44 20.0498 12.99 29.8198 12.14C39.6098 13 47.0398 22.45 46.7198 33.51H46.7298Z" fill="#FF6B04"/>
<path d="M38.6199 38.35C38.6199 38.35 40.1399 45.07 39.0299 47.25C38.9199 47.48 38.7699 47.67 38.5799 47.79C38.3599 47.94 35.9799 48.02 35.6499 48.02C34.2299 48.06 34.0299 46.9 32.3399 45.92C32.0199 45.74 31.7299 45.56 31.4599 45.39C30.7099 44.93 30.2099 44.59 30.2099 44.59C30.2099 44.59 27.8699 46.23 25.6499 47.24C24.9999 47.53 24.3499 47.77 23.7699 47.9C23.2599 48.02 20.1599 48.09 20.0499 48.01C18.1499 46.75 21.5099 38.72 21.5699 38.34V38.33C21.5699 38.33 13.9399 32.51 14.3399 29.78C14.7699 26.92 24.0899 26.63 24.0899 26.63C24.0899 26.63 24.9299 17.47 27.4099 15.45C27.7299 15.19 29.3299 15.45 29.6499 15.45C30.5199 15.45 31.4499 16.57 32.3099 18.09C34.1899 21.45 35.6399 26.62 35.6399 26.62C35.6399 26.62 36.8199 26.66 38.3599 26.84C40.1199 27.04 42.3499 27.42 43.8499 28.13C44.7399 28.55 45.3799 29.09 45.4999 29.77C45.8399 31.61 42.5299 34.91 40.3999 36.8C39.3799 37.71 38.6099 38.32 38.6099 38.32L38.6199 38.35Z" fill="url(#paint4_linear_1699_3970)"/>
<path d="M41.7899 33.22C41.6999 33.32 41.6199 33.44 41.5199 33.54C40.8899 34.3 40.1699 35.05 39.4699 35.72C39.0599 36.13 38.6399 36.5 38.2699 36.83C37.2499 37.74 36.4799 38.34 36.4799 38.34C36.4799 38.34 36.8999 40.18 37.1499 42.24C37.3799 44.13 37.4599 46.2 36.9299 47.25C36.8199 47.48 36.6699 47.66 36.4799 47.79C36.2599 47.94 35.9799 48.01 35.6499 48.02C34.2399 48.06 31.9399 46.91 30.2399 45.92C29.9199 45.74 29.6199 45.56 29.3599 45.4C28.5999 44.93 28.0999 44.6 28.0999 44.6C28.0999 44.6 25.7699 46.24 23.5499 47.25C22.8999 47.54 22.2599 47.79 21.6699 47.91C21.1599 48.03 20.6999 48.07 20.3199 47.98C20.2999 47.98 20.2899 47.98 20.2799 47.98C20.1199 47.94 19.9899 47.89 19.8699 47.81C18.6699 47.01 18.7799 43.59 19.0499 41.09C19.1199 40.39 19.2099 39.77 19.2699 39.3C19.3499 38.79 19.4099 38.45 19.4199 38.38V38.36C19.4199 38.36 15.0699 35.06 13.0899 32.25C13.0899 32.25 13.0699 32.22 13.0699 32.21C12.5999 31.55 12.2799 30.92 12.1699 30.36C12.1699 30.36 12.1699 30.3533 12.1699 30.34C12.1399 30.15 12.1399 29.98 12.1599 29.81C12.1999 29.53 12.3299 29.27 12.5299 29.04C13.3199 28.1 15.2599 27.51 17.1799 27.17C19.5599 26.73 21.8999 26.66 21.8999 26.66C21.8999 26.66 22.1299 25.67 22.5399 24.28C23.4999 21.02 25.4099 15.49 27.3999 15.49C28.2799 15.49 29.2099 16.61 30.0799 18.13C30.6399 19.13 31.1799 20.3 31.6299 21.44C32.7199 24.12 33.4499 26.67 33.4499 26.67C33.4499 26.67 34.6299 26.71 36.1699 26.89C37.9399 27.09 40.1599 27.46 41.6699 28.18C42.5699 28.61 43.1999 29.14 43.3199 29.82C43.4899 30.72 42.7999 31.97 41.7799 33.24L41.7899 33.22Z" fill="url(#paint5_linear_1699_3970)"/>
<path d="M2.3 41.0001C1.39 37.3501 10.07 41.9701 4.41999 46.2601C4.41999 46.2601 3.02 43.9101 2.3 41.0001Z" fill="white"/>
<g style="mix-blend-mode:soft-light">
<path d="M38.4 0.940063C36.01 0.720063 50.2601 6.12007 53.6001 15.8001C56.8101 25.1201 63.75 22.1501 63.75 22.1501C63.75 22.1501 58.22 1.78006 38.4 0.940063Z" fill="white"/>
</g>
<g style="mix-blend-mode:multiply" opacity="0.7">
<path d="M62.5197 45.0301C62.2897 45.8101 61.6897 46.9501 60.8397 48.2701C59.6097 50.2101 57.8397 52.4901 55.8897 54.5001L55.8597 54.5201C55.2897 55.1001 54.7097 55.6601 54.1097 56.1801C54.0797 56.2001 54.0497 56.2301 54.0297 56.2501C52.8697 57.2601 51.6697 58.1201 50.4997 58.7001C50.4597 58.7201 50.4297 58.7501 50.3897 58.7601C46.5497 60.6601 42.2297 61.5201 39.4697 61.9001C38.2197 62.0701 37.2897 62.1501 36.8597 62.1801C36.6797 62.1801 36.5897 62.2001 36.5897 62.2001C36.4997 62.1801 36.4297 62.1801 36.3797 62.1601C36.2797 62.1401 36.2197 62.1201 36.1897 62.1101C35.9297 61.9401 37.3297 61.71 39.4797 60.84C43.2397 59.33 49.3597 55.8701 53.1397 47.2801C53.1397 47.2801 60.6397 43.6301 62.4197 43.9501C62.7197 44.0001 62.7497 44.3801 62.5497 45.0001L62.5197 45.0301Z" fill="#DE376D"/>
</g>
<path d="M36.6997 1.5C36.6997 1.5 53.1897 5.24 57.1897 24.74C60.8997 42.81 46.3997 56.46 46.3997 56.46C46.3997 56.46 56.9297 44.09 55.5097 26.68C53.9797 7.95 36.6997 1.51 36.6997 1.51V1.5Z" fill="#FFE016"/>
<path d="M56.8496 25.02C55.7496 23.37 52.9896 32.26 56.1296 33.92C57.6596 34.73 58.9596 28.18 56.8496 25.02Z" fill="white"/>
<g style="mix-blend-mode:soft-light" opacity="0.5">
<path d="M54.01 45.42C53.96 45.54 53.8 45.93 53.52 46.49C52.73 48.1 51.01 51.18 48.28 54.23C46.05 56.72 43.13 59.18 39.45 60.8C38.2 61.34 36.87 61.8 35.44 62.13C35.12 62.2 34.81 62.27 34.48 62.32C34.48 62.32 34.45 62.32 34.44 62.32C33.94 62.41 33.42 62.49 32.89 62.54C32.81 62.56 32.72 62.56 32.64 62.57C32.57 62.57 32.5 62.59 32.43 62.59C31.66 62.66 30.89 62.71 30.17 62.72H30.14C29.54 62.74 28.97 62.72 28.41 62.72C25.24 62.61 22.54 62.03 20.33 61.26C20.27 61.24 20.21 61.22 20.14 61.2C15.78 59.67 13.31 57.48 12.88 57.08C12.88 57.06 12.85 57.06 12.84 57.05C12.82 57.03 12.81 57.02 12.81 57.02C12.19 56.51 15.82 59.03 21.29 60.5C23.37 61.06 25.82 61.47 28.4 61.46C29.25 61.46 30.12 61.4 30.99 61.29C31.22 61.26 31.46 61.23 31.68 61.19C34.52 60.74 37.11 59.86 39.43 58.73C48.44 54.34 53.58 46.12 54.01 45.42Z" fill="white"/>
</g>
<g style="mix-blend-mode:soft-light" opacity="0.5">
<path d="M41.7899 33.22C41.6999 33.32 41.6199 33.44 41.5199 33.54C40.8899 34.3 40.1699 35.05 39.4699 35.72C36.7899 35.82 34.1399 36.1 31.8199 36.73C28.4999 37.64 23.7099 39.4 19.0499 41.08C19.1199 40.38 19.2099 39.76 19.2699 39.29C19.3499 38.78 19.4099 38.44 19.4199 38.37V38.35C19.4199 38.35 15.0699 35.05 13.0899 32.24C13.0899 32.24 13.0699 32.21 13.0699 32.2C12.5999 31.54 12.2799 30.91 12.1699 30.35C12.1699 30.35 12.1699 30.3434 12.1699 30.33C12.1399 30.14 12.1399 29.97 12.1599 29.8C12.1999 29.52 12.3299 29.26 12.5299 29.03C13.3199 28.09 15.2599 27.5 17.1799 27.16C19.5599 26.72 21.8999 26.65 21.8999 26.65C21.8999 26.65 22.1299 25.66 22.5399 24.27C25.5799 23.43 28.7599 22.44 31.6299 21.42C32.7199 24.1 33.4499 26.65 33.4499 26.65C33.4499 26.65 34.6299 26.69 36.1699 26.87C37.9399 27.07 40.1599 27.44 41.6699 28.16C42.5699 28.59 43.1999 29.12 43.3199 29.8C43.4899 30.7 42.7999 31.95 41.7799 33.22H41.7899Z" fill="white"/>
</g>
<path d="M16.6699 48.03C16.6699 48.03 29.8599 57.6 40.2199 48.56C40.2199 48.56 28.8999 59.75 16.6699 48.03Z" fill="#FFE016"/>
<g style="mix-blend-mode:multiply" opacity="0.5">
<path d="M10.9397 26.85C11.6697 30.39 14.4997 18.96 26.0897 15.36C37.8397 11.71 46.1297 27.54 46.1297 27.54C46.1297 27.54 44.2197 12.01 27.9397 12C15.2097 12 10.9297 26.85 10.9297 26.85H10.9397Z" fill="#D42F55"/>
</g>
<g style="mix-blend-mode:multiply" opacity="0.7">
<path d="M38.62 38.35H36.48C36.48 38.35 40.39 35.05 42.5 32.26C44.63 29.44 45.26 31.19 45.26 31.19C45.26 31.19 43.04 35.4 38.62 38.35Z" fill="#DE376D"/>
</g>
<path d="M35.0596 26.75C35.0596 26.75 33.4996 27.78 35.0496 29.51C36.5796 31.23 40.8696 29.74 41.3696 28.61C41.8696 27.48 37.2096 26.72 35.0596 26.75Z" fill="white"/>
<g style="mix-blend-mode:soft-light">
<path d="M41.58 59.97C40.52 60.57 46.4599 60.68 48.9299 59.45C51.4099 58.21 54.98 55.74 55.53 54.22C56.08 52.69 52.67 52.99 50.61 53.46C48.55 53.93 46.6 57.15 41.58 59.98V59.97Z" fill="white"/>
</g>
<path d="M56.1399 41.53C54.1499 40.92 51.3799 44.83 52.7999 48.06C54.2099 51.25 60.6799 42.91 56.1399 41.53Z" fill="url(#paint6_linear_1699_3970)"/>
<g style="mix-blend-mode:multiply" opacity="0.7">
<path d="M53.0296 44.2899C52.8396 46.6499 55.8297 46.7899 56.9797 45.5599C58.1297 44.3199 58.0997 41.5299 55.8897 41.4799C53.6797 41.4199 53.0296 44.2899 53.0296 44.2899Z" fill="#DE376D"/>
</g>
<path d="M52.4199 46.33C53.0699 44.91 54.8199 46.65 55.8899 46.73C56.9699 46.81 55.1099 49.13 53.8799 48.79C52.6399 48.45 52.4199 46.33 52.4199 46.33Z" fill="#FF9500"/>
<path d="M49.5198 42.54C47.5198 41.95 45.5098 44.76 46.3598 46.65C47.1998 48.52 53.0098 43.58 49.5198 42.54Z" fill="url(#paint7_linear_1699_3970)"/>
<g style="mix-blend-mode:multiply" opacity="0.7">
<path d="M48.64 42.46C47.25 42.83 46.79 44.79 47.34 45.37C47.88 45.95 50.52 45.24 50.62 43.92C50.72 42.59 49.19 42.32 48.64 42.47V42.46Z" fill="#DE376D"/>
</g>
<path d="M46.1499 45.9799C46.5199 44.2499 47.2599 45.9799 48.3399 46.1799C49.4099 46.3799 46.2099 48.2899 46.1499 45.9799Z" fill="#FF9500"/>
<path d="M15.5097 17.69C13.8897 17.18 12.4197 19.52 13.1797 21.11C13.9397 22.69 18.3397 18.58 15.5097 17.69Z" fill="url(#paint8_linear_1699_3970)"/>
<g style="mix-blend-mode:multiply" opacity="0.7">
<path d="M14.7997 17.61C13.7097 17.91 13.4397 19.55 13.8997 20.04C14.3597 20.53 16.4297 19.96 16.4497 18.85C16.4697 17.73 15.2397 17.5 14.7997 17.62V17.61Z" fill="#DE376D"/>
</g>
<path d="M12.9795 20.55C13.1895 19.1 13.8695 20.55 14.7295 20.73C15.5995 20.9 13.1295 22.49 12.9795 20.55Z" fill="#FF9500"/>
<g style="mix-blend-mode:multiply" opacity="0.8">
<path d="M58.7398 11.24C58.6698 11.15 58.5998 11.07 58.5298 10.98C58.6198 11.09 58.6898 11.18 58.7398 11.24Z" fill="#D42F55"/>
</g>
<g style="mix-blend-mode:multiply" opacity="0.8">
<path d="M58.5296 10.99C57.9196 10.27 56.3296 8.56004 53.6396 6.77004C53.6396 6.77004 53.6196 6.77005 53.6096 6.75005C50.3596 4.58005 45.5296 2.30004 38.9196 1.45004C38.8296 1.43004 38.7296 1.42005 38.6396 1.41005C37.6596 1.29005 36.6296 1.20005 35.5796 1.15005C35.4796 1.14005 35.3896 1.14005 35.2896 1.14005C35.1596 1.14005 35.0296 1.14005 34.8996 1.14005C33.2696 1.08005 31.5496 1.12005 29.7496 1.26005C29.3396 1.29005 28.9396 1.33004 28.5496 1.38004C19.1096 2.41004 12.8496 6.48005 8.95964 10.33C5.76964 13.47 4.16963 16.48 3.61963 17.63C6.90963 10.01 12.9296 4.07004 20.4096 1.53004C20.4296 1.53004 20.4496 1.53005 20.4696 1.51005C20.9096 1.35005 21.3696 1.21004 21.8196 1.09004C21.9796 1.04004 22.1496 0.990047 22.3196 0.950047C22.3996 0.930047 22.4696 0.910047 22.5496 0.900047C22.9896 0.790047 23.4096 0.700045 23.8396 0.620045C24.0896 0.570045 24.3496 0.530047 24.5996 0.490047C25.8896 0.280047 27.2096 0.170044 28.5496 0.170044C29.8896 0.170044 31.0996 0.270045 32.3396 0.460045L38.8996 0.960045C46.7596 1.13004 53.6996 4.99005 58.5096 11.01L58.5296 10.99Z" fill="#D42F55"/>
</g>
<g style="mix-blend-mode:multiply" opacity="0.8">
<path d="M56.3696 54.1101C55.6496 54.8501 54.8896 55.5601 54.0996 56.2001C54.0696 56.2201 54.0396 56.2501 54.0196 56.2701C52.8596 57.2801 51.6596 58.1401 50.4896 58.7201C50.4496 58.7401 50.4196 58.7701 50.3796 58.7801C46.7696 60.8701 42.6996 62.0901 38.4096 62.2101H38.3296L32.7496 62.5601C31.5496 62.7401 30.3196 62.8301 29.0696 62.8301C28.8796 62.8301 28.6796 62.8301 28.4896 62.8301H28.3796C25.8996 62.7601 23.4896 62.3101 21.1996 61.5601C20.8896 61.4701 20.5896 61.3701 20.2996 61.2701C20.2396 61.2501 20.1796 61.2301 20.1096 61.2101C15.7496 59.6801 13.2796 57.4901 12.8496 57.0901C12.8496 57.0701 12.8196 57.0701 12.8096 57.0601C11.0796 55.6901 9.47957 54.1001 8.05957 52.3301C8.30957 52.5601 13.5596 57.6401 21.2696 60.5101C23.4596 61.3301 25.8396 61.9601 28.3796 62.2601C30.1496 62.4801 31.9996 62.5301 33.8996 62.3801C34.0796 62.3601 34.2396 62.3501 34.4096 62.3301C34.4296 62.3301 34.4496 62.3301 34.4496 62.3301C34.9396 62.2901 35.4296 62.2401 35.8996 62.1801C35.9796 62.1801 36.0596 62.1601 36.1396 62.1601C37.2796 62.0101 38.3796 61.8301 39.4296 61.6201C48.4096 59.8301 54.0296 55.9401 55.8196 54.5601L55.8496 54.5401C56.0796 54.3601 56.2496 54.2201 56.3396 54.1401L56.3696 54.1101Z" fill="#D42F55"/>
</g>
<path d="M43.7399 2.37004C40.2799 2.22004 47.4599 7.55004 50.2699 9.83004C53.0499 12.1 57.7499 10.5 57.8999 10.28C58.0499 10.06 50.7199 2.66004 43.7399 2.37004Z" fill="white"/>
<defs>
<linearGradient id="paint0_linear_1699_3970" x1="38.0698" y1="62.23" x2="38.0698" y2="0.940041" gradientUnits="userSpaceOnUse">
<stop offset="0.05" stop-color="#FF3F00"/>
<stop offset="0.72" stop-color="#FF6A03"/>
<stop offset="1" stop-color="#FFFF04"/>
</linearGradient>
<linearGradient id="paint1_linear_1699_3970" x1="33.9299" y1="62.84" x2="33.9299" y2="0.150024" gradientUnits="userSpaceOnUse">
<stop offset="0.05" stop-color="#FF3F00"/>
<stop offset="0.72" stop-color="#FF6A03"/>
<stop offset="1" stop-color="#FFFF04"/>
</linearGradient>
<linearGradient id="paint2_linear_1699_3970" x1="28.82" y1="62.84" x2="28.82" y2="0.150024" gradientUnits="userSpaceOnUse">
<stop stop-color="#FFA900"/>
<stop offset="1" stop-color="#FF9600"/>
</linearGradient>
<linearGradient id="paint3_linear_1699_3970" x1="28.58" y1="53.2101" x2="28.58" y2="12.0701" gradientUnits="userSpaceOnUse">
<stop stop-color="#FF7C04"/>
<stop offset="1" stop-color="#D92000"/>
</linearGradient>
<linearGradient id="paint4_linear_1699_3970" x1="36.2299" y1="48.66" x2="24.5299" y2="16.51" gradientUnits="userSpaceOnUse">
<stop stop-color="#EA5104"/>
<stop offset="1" stop-color="#D92000"/>
</linearGradient>
<linearGradient id="paint5_linear_1699_3970" x1="34.4799" y1="48.56" x2="22.9899" y2="17.01" gradientUnits="userSpaceOnUse">
<stop stop-color="#FF9600"/>
<stop offset="1" stop-color="#FFA900"/>
</linearGradient>
<linearGradient id="paint6_linear_1699_3970" x1="55.0699" y1="48.79" x2="55.0699" y2="41.47" gradientUnits="userSpaceOnUse">
<stop offset="0.04" stop-color="#EF6300"/>
<stop offset="1" stop-color="#E13E00"/>
</linearGradient>
<linearGradient id="paint7_linear_1699_3970" x1="48.3898" y1="47.07" x2="48.3898" y2="42.46" gradientUnits="userSpaceOnUse">
<stop offset="0.04" stop-color="#EF6300"/>
<stop offset="1" stop-color="#E13E00"/>
</linearGradient>
<linearGradient id="paint8_linear_1699_3970" x1="14.7028" y1="21.4761" x2="14.7434" y2="17.6063" gradientUnits="userSpaceOnUse">
<stop offset="0.04" stop-color="#EF6300"/>
<stop offset="1" stop-color="#E13E00"/>
</linearGradient>
</defs>
</svg>
