<svg width="80" height="61" viewBox="0 0 80 61" fill="none" xmlns="http://www.w3.org/2000/svg">
<path d="M56.9201 1.27992C41.8701 1.67992 36.2101 20.4699 36.2101 20.4699C36.2101 20.4699 29.6 1.68992 14.5301 1.27992C-0.59995 0.879917 -4.29995 20.9999 6.72005 39.0499C16.4701 55.0199 37.2201 60.5999 37.2201 60.5999C37.2201 60.5999 59.8701 54.7799 66.6401 39.0499C73.5901 22.9099 72.0401 0.879917 56.9301 1.27992H56.9201Z" fill="url(#paint0_linear_1699_3898)"/>
<path d="M37.2199 60.59H43.2699L69.9599 1.83997C69.9599 1.83997 60.2899 -1.20002 51.2999 2.43998C42.6699 5.92998 37.4499 17.29 37.4499 17.29L26.5999 1.64997C26.5999 1.64997 15.3599 -2.34003 7.73986 2.78997C0.539856 7.63997 13.1899 41.44 13.1899 41.44L37.2199 60.59Z" fill="url(#paint1_linear_1699_3898)"/>
<path d="M73.7699 39.04C64.9299 53.46 44.5899 60.17 43.3299 60.57C43.2899 60.58 43.2699 60.59 43.2699 60.59C43.2699 60.59 22.3399 53.91 13.8499 39.04C3.70993 21.29 8.44993 0.870001 23.5699 1.28C38.6099 1.68 44.2799 20.46 44.2799 20.46C44.2799 20.46 50.8899 1.68 65.9599 1.28C73.2999 1.08 77.6499 6.24 79.0499 13.42C80.5599 21.03 78.7699 30.9 73.7699 39.04Z" fill="url(#paint2_linear_1699_3898)"/>
<path d="M71.66 21.6099C71.4 26.1299 70 31.2499 67.14 35.8999C61.06 45.8099 47.68 51.4099 43.36 53.0099C42.83 52.7999 42.15 52.5399 41.37 52.2099C35.97 49.9199 25.49 44.5899 20.59 36.0299C17.24 30.1599 16.11 24.3799 16.36 19.7099C16.52 16.7999 17.22 14.3299 18.25 12.5499C19.41 10.5399 21.01 9.27992 23.01 8.78992C23.66 8.62992 24.34 8.54993 25.07 8.54993H25.35C32.62 8.73993 39.06 19.2599 42.12 25.2199C43.34 27.5799 44.03 29.2299 44.03 29.2299C44.03 29.2299 52.59 11.1799 62.21 8.80992C62.82 8.64992 63.43 8.56993 64.04 8.54993H64.29C66.86 8.54993 68.67 9.63993 69.98 11.9699C71.27 14.2699 71.89 17.7199 71.66 21.6099Z" fill="url(#paint3_linear_1699_3898)"/>
<path d="M63.0999 35.8999C57.7899 44.5499 46.9199 49.9199 41.3699 52.2099C35.9699 49.9199 25.4899 44.5899 20.5899 36.0299C15.1499 26.4999 15.5699 17.1799 18.2499 12.5499C19.4099 10.5399 21.0099 9.27992 23.0099 8.78992C32.3999 11.0599 39.9799 29.2299 39.9799 29.2299H44.0299C44.0299 29.2299 52.5899 11.1799 62.2099 8.80992C63.7799 9.24992 64.9899 10.2799 65.9399 11.9699C68.7199 16.9399 68.4099 27.2399 63.0999 35.8999Z" fill="url(#paint4_linear_1699_3898)"/>
<g style="mix-blend-mode:multiply" opacity="0.5">
<path d="M71.6599 21.6099C71.1499 22.9699 70.5699 23.8899 69.9599 23.8599C67.7399 23.7299 67.5699 9.35992 60.0499 12.2299C52.5299 15.0999 44.0299 31.0899 44.0299 31.0899C44.0299 31.0899 41.4799 32.5699 40.7199 32.0599C39.9699 31.5599 22.6599 6.92992 16.3699 19.7199H16.3599C16.5199 16.7999 17.2199 14.3299 18.2499 12.5499C19.4099 10.5399 21.0099 9.27992 23.0099 8.78992C23.6599 8.62992 24.3399 8.54993 25.0699 8.54993H25.3499C32.6199 8.73993 39.0599 19.2599 42.1199 25.2199C43.3399 27.5799 44.0299 29.2299 44.0299 29.2299C44.0299 29.2299 52.5899 11.1799 62.2099 8.80992C62.8199 8.64992 63.4299 8.56993 64.0399 8.54993H64.2899C66.8599 8.54993 68.6699 9.63993 69.9799 11.9699C71.2699 14.2699 71.8899 17.7199 71.6599 21.6099Z" fill="#9A2E69"/>
</g>
<g style="mix-blend-mode:soft-light">
<path d="M22.9299 39.4099C22.9299 39.4099 36.3299 51.3799 41.9999 50.9399C47.6699 50.4999 56.7599 43.2199 61.5599 39.4099C66.3599 35.5999 63.8299 40.2099 63.8299 40.2099C63.8299 40.2099 51.6699 51.8499 43.3499 53.0099C43.3499 53.0099 32.1599 49.5399 22.9199 39.4099H22.9299Z" fill="#FF6EFF"/>
</g>
<g style="mix-blend-mode:soft-light">
<path d="M2.37027 8.55002C1.07027 12.1 7.62027 8.22002 13.5003 4.67002C19.3703 1.12002 24.0503 1.27003 24.0503 1.27003C24.0503 1.27003 9.25028 -3.27997 2.38028 8.55002H2.37027Z" fill="#FF6EFF"/>
</g>
<path d="M8.49984 21.0899C8.49984 21.0899 9.16983 11.42 13.5698 6.49995C17.9698 1.58995 22.8198 1.27995 22.8198 1.27995C22.8198 1.27995 7.86984 0.569948 8.49984 21.0899Z" fill="#FF5D99"/>
<g style="mix-blend-mode:soft-light">
<path d="M46.7201 5.17995C41.4401 10.07 56.9101 2.38996 62.9701 1.43996C69.0301 0.48996 53.5501 -1.15005 46.7201 5.17995Z" fill="#FF6EFF"/>
</g>
<g style="mix-blend-mode:multiply" opacity="0.5">
<path d="M25.64 55.82C29.77 57.75 37.74 58.97 37.74 58.97C37.74 58.97 20.29 48.27 15.56 41.71C10.83 35.16 6.55004 30.36 6.04004 37.9C6.04004 37.9 12.61 49.73 25.64 55.81V55.82Z" fill="#9A2E69"/>
</g>
<g style="mix-blend-mode:multiply" opacity="0.5">
<path d="M44.2798 20.46C44.2798 20.46 49.0598 10.96 49.4998 9.07002C49.9398 7.18002 45.7298 7.19 44.2798 7.87C42.8298 8.55 40.5898 11.95 40.5898 11.95C40.5898 11.95 43.0398 16.76 44.2798 20.46Z" fill="#9A2E69"/>
</g>
<g style="mix-blend-mode:multiply" opacity="0.5">
<path d="M73.7701 39.0399C64.9301 53.4599 44.5901 60.1699 43.3301 60.5699C44.5301 60.0699 63.8001 51.8599 71.7101 39.0999C79.5801 26.4199 79.1001 14.2899 79.0501 13.4199C80.5601 21.0299 78.7701 30.8999 73.7701 39.0399Z" fill="#9A2E69"/>
</g>
<g style="mix-blend-mode:soft-light" opacity="0.5">
<path d="M1.81995 12.07C2.48995 10.46 7.87995 10.27 9.01995 10.38C10.1599 10.49 6.94995 20.51 7.27995 21.9C7.60995 23.29 2.38995 24.51 1.14995 23.4C-0.0800519 22.3 0.389948 15.47 1.80995 12.06L1.81995 12.07Z" fill="white"/>
</g>
<g style="mix-blend-mode:soft-light">
<path d="M19.0902 2.13997C15.2902 3.67997 8.48019 11.61 9.90019 22.72C11.3102 33.83 15.0802 36.15 16.9702 35.69C18.8602 35.23 12.3002 18.42 19.0902 9.95998C25.8802 1.49998 36.1802 14.11 40.5802 20.74C44.9702 27.37 45.2602 21.54 54.9902 11.45C64.7302 1.35997 71.4102 11.35 72.5502 14.76C73.6902 18.17 78.0702 13.42 78.2202 10.36C78.3602 7.29997 68.4702 -1.87003 60.5302 2.27997C52.5902 6.41997 44.2802 20.46 44.2802 20.46C44.2802 20.46 34.0202 -1.75003 19.1002 2.12997L19.0902 2.13997Z" fill="#FF6EFF"/>
</g>
<path d="M43.04 52.79C42.1 52.31 44.57 50.75 45.98 50.6C47.54 50.44 48.1 50.76 48.34 50.97C48.58 51.18 45.7 52.75 43.04 52.79Z" fill="white"/>
<path d="M57.4601 2.58C54.0901 5.6 65.7501 3.9 67.6701 2.13C69.5901 0.36 59.8101 0.479998 57.4601 2.58Z" fill="white"/>
<path d="M14.0698 4.67C13.7098 6.35 18.8298 3.37001 20.2998 1.88001C21.2398 0.930009 14.6398 2.07 14.0698 4.67Z" fill="white"/>
<path d="M68.04 31.77C68.04 29.64 70 25.74 71.03 25.53C72.06 25.32 72.99 27.51 72.14 30.73C71.29 33.95 68.04 35.03 68.04 31.77Z" fill="url(#paint5_linear_1699_3898)"/>
<g style="mix-blend-mode:multiply" opacity="0.5">
<path d="M70.6901 25.7C70.0601 25.83 68.9201 29.36 69.2501 30.36C69.5801 31.36 71.7401 31.41 72.1001 29.58C72.4501 27.75 72.1801 25.39 70.6901 25.7Z" fill="#9A2E69"/>
</g>
<g style="mix-blend-mode:soft-light">
<path d="M68.2999 31.92C67.7699 30.07 70.6299 31.65 71.3799 31.19C72.1399 30.73 71.7599 31.62 71.7599 31.62C71.7599 31.62 68.2299 36.36 68.2899 31.92H68.2999Z" fill="#FF6EFF"/>
</g>
<path d="M8.44985 23.9299C7.11985 24.2899 7.90985 30.1499 9.82985 30.5899C11.7498 31.0299 12.3898 22.8699 8.44985 23.9299Z" fill="url(#paint6_linear_1699_3898)"/>
<g style="mix-blend-mode:multiply" opacity="0.5">
<path d="M8.25999 24.36C7.44999 25.4 8.03999 28.02 8.72999 28.72C9.41999 29.41 11.16 27.96 10.88 25.85C10.6 23.73 8.54999 23.99 8.25999 24.37V24.36Z" fill="#9A2E69"/>
</g>
<g style="mix-blend-mode:soft-light">
<path d="M8.46997 29.1299C8.38997 28.2099 9.35997 29.6999 10.21 28.6899C11.06 27.6799 11.33 27.2999 11.33 27.2199C11.33 27.1399 11.16 29.7799 10.34 30.3899C9.51997 30.9999 8.46997 29.1299 8.46997 29.1299Z" fill="#FF6EFF"/>
</g>
<path d="M63.2802 23.05C62.4402 23 61.7602 26.57 62.8002 27.2C63.8402 27.83 65.7802 23.19 63.2802 23.05Z" fill="url(#paint7_linear_1699_3898)"/>
<g style="mix-blend-mode:multiply" opacity="0.5">
<path d="M63.09 23.26C62.42 23.71 62.2601 25.35 62.5301 25.89C62.8001 26.43 64.09 25.92 64.34 24.63C64.58 23.34 63.3401 23.1 63.1001 23.26H63.09Z" fill="#9A2E69"/>
</g>
<g style="mix-blend-mode:soft-light">
<path d="M62.29 26.08C62.42 25.53 62.7 26.58 63.39 26.16C64.08 25.73 64.31 25.57 64.33 25.52C64.34 25.47 63.74 26.98 63.14 27.18C62.54 27.38 62.29 26.09 62.29 26.09V26.08Z" fill="#FF6EFF"/>
</g>
<defs>
<linearGradient id="paint0_linear_1699_3898" x1="35.4701" y1="60.5899" x2="35.4701" y2="1.26992" gradientUnits="userSpaceOnUse">
<stop stop-color="#83003B"/>
<stop offset="1" stop-color="#C20040"/>
</linearGradient>
<linearGradient id="paint1_linear_1699_3898" x1="37.7399" y1="-182" x2="37.7399" y2="0.169959" gradientUnits="userSpaceOnUse">
<stop stop-color="#83003B"/>
<stop offset="1" stop-color="#C20040"/>
</linearGradient>
<linearGradient id="paint2_linear_1699_3898" x1="44.0199" y1="60.59" x2="44.0199" y2="1.28" gradientUnits="userSpaceOnUse">
<stop stop-color="#DE004C"/>
<stop offset="1" stop-color="#FF003B"/>
</linearGradient>
<linearGradient id="paint3_linear_1699_3898" x1="44.02" y1="53.0099" x2="44.02" y2="8.54993" gradientUnits="userSpaceOnUse">
<stop stop-color="#FF2352"/>
<stop offset="0.07" stop-color="#F41F4F"/>
<stop offset="0.34" stop-color="#D01146"/>
<stop offset="0.59" stop-color="#B60740"/>
<stop offset="0.82" stop-color="#A6023C"/>
<stop offset="1" stop-color="#A1003B"/>
</linearGradient>
<linearGradient id="paint4_linear_1699_3898" x1="41.9999" y1="52.2099" x2="41.9999" y2="8.78992" gradientUnits="userSpaceOnUse">
<stop stop-color="#B80057"/>
<stop offset="1" stop-color="#CE003B"/>
</linearGradient>
<linearGradient id="paint5_linear_1699_3898" x1="69.8091" y1="33.7987" x2="70.8575" y2="25.4643" gradientUnits="userSpaceOnUse">
<stop stop-color="#DE0057"/>
<stop offset="1" stop-color="#A1003B"/>
</linearGradient>
<linearGradient id="paint6_linear_1699_3898" x1="9.55985" y1="30.5999" x2="9.55985" y2="23.8299" gradientUnits="userSpaceOnUse">
<stop stop-color="#DE0057"/>
<stop offset="1" stop-color="#A1003B"/>
</linearGradient>
<linearGradient id="paint7_linear_1699_3898" x1="62.633" y1="27.168" x2="63.9378" y2="23.2179" gradientUnits="userSpaceOnUse">
<stop stop-color="#DE0057"/>
<stop offset="1" stop-color="#A1003B"/>
</linearGradient>
</defs>
</svg>
