<svg width="75" height="114" viewBox="0 0 75 114" fill="none" xmlns="http://www.w3.org/2000/svg">
<path d="M71.7998 74.38C71.1098 68.58 69.1198 63.62 66.6298 60.86C54.7398 47.57 45.9698 48.64 45.2498 45.22C44.5198 41.8 47.0898 40.33 47.0898 40.33L36.3798 41.11L25.6798 40.33C25.6798 40.33 28.2398 41.8 27.5198 45.22C26.7898 48.64 18.0198 47.57 6.13976 60.86C3.01976 64.35 0.659764 71.31 0.709764 79.05V79.09C0.819764 93.47 9.21976 110.52 36.3898 113.05C66.5998 110.24 73.6098 89.46 71.8098 74.38H71.7998ZM4.94976 73.55C9.31976 53.25 27.2698 50.06 29.1498 47.59C31.0298 45.1 30.3598 41.18 30.3598 41.18H41.4098C41.4098 41.18 40.7398 45.11 42.6198 47.59C44.4998 50.07 62.4398 53.25 66.8198 73.55C71.1798 93.86 54.8998 105.37 35.8898 106.67C16.8698 105.37 0.599764 93.86 4.95976 73.55H4.94976Z" fill="url(#paint0_linear_1699_3817)"/>
<path d="M17.4596 26.41C16.4796 27.85 17.8696 35.89 19.2396 38.02C22.3096 42.81 49.5396 41.36 52.2096 38.56C54.2596 36.42 54.8696 27.46 54.2996 26.12C53.7296 24.78 17.4596 26.41 17.4596 26.41Z" fill="url(#paint1_linear_1699_3817)"/>
<path d="M17.4597 26.41C16.5797 29.75 53.7797 31.91 54.2997 26.12C54.8197 20.33 19.3997 19.06 17.4597 26.41Z" fill="#EBC3D3"/>
<g style="mix-blend-mode:multiply" opacity="0.5">
<path d="M23.2497 26.13C22.6497 28.42 48.0697 29.11 48.4297 25.13C48.7897 21.16 24.5797 21.09 23.2497 26.13Z" fill="#9A376D"/>
</g>
<g style="mix-blend-mode:multiply" opacity="0.3">
<path d="M22.2798 29.14C18.5098 28.22 20.2198 33.99 22.2798 37.26C24.3398 40.53 48.2498 40.46 50.3898 35.62C52.5398 30.78 50.3898 31.32 41.2998 31C32.2098 30.68 22.2798 29.14 22.2798 29.14Z" fill="#9A376D"/>
</g>
<path opacity="0.45" d="M25.3597 29.7199C24.0397 29.3999 27.1997 35.8799 32.0997 38.4499C36.9997 41.0199 45.7897 35.9799 47.1197 31.3399C47.1197 31.3399 33.1197 30.5999 25.3597 29.7199Z" fill="url(#paint2_linear_1699_3817)"/>
<path d="M38.0198 27.98C30.7198 28.66 42.6898 29.94 46.4598 29.31C50.2398 28.68 54.4998 26.87 54.0198 25.96C53.7198 25.38 47.6498 26.67 43.9398 27.34C40.2298 28.02 38.0198 27.97 38.0198 27.97V27.98Z" fill="white"/>
<path d="M52.8998 33.75C51.6898 33.47 48.7498 37.36 47.1298 38.91C45.5098 40.46 50.8598 39.32 52.3898 37.38C53.9198 35.44 53.5198 33.9 52.8998 33.75Z" fill="white"/>
<path d="M18.3595 25.53C17.4595 26.41 18.4195 27.54 20.1795 27.98C21.9295 28.43 20.6595 25.52 19.9995 25.31C19.3395 25.11 18.3695 25.52 18.3695 25.52L18.3595 25.53Z" fill="white"/>
<g style="mix-blend-mode:soft-light">
<path d="M26.4798 40.69C23.6298 40.19 22.9198 32.93 24.0198 31.65C25.1098 30.37 36.0198 39.61 34.6398 40.69C33.2598 41.77 26.4898 40.69 26.4898 40.69H26.4798Z" fill="white"/>
</g>
<g style="mix-blend-mode:soft-light">
<path d="M18.0197 28.77C17.6197 29.68 18.3097 34.62 19.1297 36.69C19.9497 38.76 21.3097 39.01 21.8597 39.15C22.3997 39.3 20.0797 34.1 19.3397 31.54C18.673 29.22 18.2331 28.2966 18.0197 28.77Z" fill="white"/>
</g>
<g style="mix-blend-mode:multiply" opacity="0.3">
<path d="M20.1796 23.76C18.0096 25.36 17.1596 26.09 26.0596 23.93C34.9596 21.77 45.2396 22.56 47.4396 23.44C49.6396 24.33 49.0796 26.38 53.1096 25.59C57.1396 24.8 47.2196 21.16 35.7096 21.33C24.1996 21.5 20.1796 23.76 20.1796 23.76Z" fill="#9A376D"/>
</g>
<path d="M25.0598 27.17C25.0598 27.17 24.0798 18.42 20.8398 4.43003C20.8398 4.43003 44.0499 -3.32997 55.1599 8.95003C55.1599 8.95003 48.5098 18.11 47.6798 26.65C47.6798 26.65 39.1498 29.31 25.0598 27.17Z" fill="url(#paint3_linear_1699_3817)"/>
<path d="M54.6398 9.68999C48.7198 16.06 17.6598 6.47999 21.0698 3.77999C24.4298 1.11999 30.4398 0.299989 36.4898 0.639989C36.8698 0.869989 38.1698 1.59999 38.9598 1.59999C39.8898 1.59999 41.1198 1.10999 41.1198 1.10999C41.3298 1.13999 41.5398 1.17999 41.7498 1.19999C41.7498 1.19999 41.5998 3.97999 44.3198 1.69999C51.9198 3.35999 57.5198 6.58999 54.6498 9.67999L54.6398 9.68999Z" fill="#FF7A00"/>
<g style="mix-blend-mode:multiply" opacity="0.5">
<path d="M28.1196 27.5699C28.1196 27.5699 26.1397 10.2199 27.6397 8.17994C29.1397 6.13994 39.3296 3.47994 46.7296 4.60994C54.1296 5.73994 54.9796 9.24994 54.9796 9.24994C54.9796 9.24994 51.5097 4.72995 44.6097 5.07995C37.7097 5.42995 29.9697 6.55994 29.0297 9.38994C28.0897 12.2199 29.9697 27.7499 29.9697 27.7499L28.1196 27.5699Z" fill="#B10053"/>
</g>
<g style="mix-blend-mode:multiply" opacity="0.5">
<path d="M33.2197 27.98C33.2197 27.98 32.8197 13.54 35.1097 10.31C37.3997 7.08003 53.4497 10.58 53.4497 10.58C53.4497 10.58 38.8397 8.42003 36.0897 10.52C33.3397 12.63 35.6097 27.97 35.6097 27.97H33.2297L33.2197 27.98Z" fill="#B10053"/>
</g>
<g style="mix-blend-mode:multiply" opacity="0.5">
<path d="M39.6596 27.81C39.6596 27.81 38.6596 19.22 43.9096 16.05C49.1596 12.88 50.4296 17.26 50.4296 17.26L49.3896 19.77C49.3896 19.77 48.1596 15.24 44.0896 17.25C40.0196 19.26 40.5896 27.82 40.5896 27.82H39.6596V27.81Z" fill="#B10053"/>
</g>
<path d="M29.0098 17.83C29.0098 17.83 26.9798 10.67 27.6498 8.18C28.3098 5.69 41.9898 5.25 41.9898 5.25C41.9898 5.25 31.8498 6.2 29.3698 8.75C27.6698 10.5 28.9998 17.82 28.9998 17.82L29.0098 17.83Z" fill="#97001A"/>
<path d="M34.7298 16.8C34.7298 16.8 34.0198 10.88 35.8098 9.72001C37.5998 8.56001 43.3198 9.64001 43.3198 9.64001C43.3198 9.64001 37.7598 9.08001 36.0898 10.53C34.4098 11.99 34.7298 16.8 34.7298 16.8Z" fill="#97001A"/>
<g style="mix-blend-mode:soft-light" opacity="0.5">
<path d="M22.18 3.42994C20.54 3.80994 25.4 7.04994 26.67 7.37994C27.94 7.70994 32.01 5.59994 34.28 5.24994C36.55 4.89994 24.48 2.88994 22.18 3.42994Z" fill="white"/>
</g>
<g style="mix-blend-mode:soft-light" opacity="0.5">
<path d="M29.7197 8.45C29.7197 8.45 33.9697 10.35 34.5697 10.18C35.1697 10.01 36.9697 9.13 37.9997 8.69C39.0297 8.25 34.9797 5.72 29.7197 8.45Z" fill="white"/>
</g>
<g style="mix-blend-mode:soft-light" opacity="0.5">
<path d="M36.8398 10.69C36.8398 10.69 43.8999 11.88 47.2999 11.84C50.7099 11.8 51.7798 11.27 51.7798 11.27C51.7798 11.27 43.8198 8.25997 36.8398 10.7V10.69Z" fill="white"/>
</g>
<path d="M35.5596 11.2C35.5596 11.2 36.7596 11.2 37.2696 10.91C37.7796 10.62 37.7396 9.90002 37.7396 9.90002C37.7396 9.90002 36.4196 10.08 35.5596 11.2Z" fill="#FFA457"/>
<path d="M28.79 9.90001C28.79 9.90001 30.16 9.68001 30.31 9.04001C30.46 8.40001 30.09 8.26001 30.09 8.26001C30.09 8.26001 29.3 8.40001 28.8 9.89001L28.79 9.90001Z" fill="#FFA457"/>
<g style="mix-blend-mode:multiply" opacity="0.3">
<path d="M36.09 27.6499C36.09 27.6499 35.14 15.9099 35.71 13.6499C36.28 11.3899 42.48 12.0999 46.42 12.3699C50.36 12.6399 45.76 12.4599 42.52 16.4899C39.28 20.5199 39.51 26.6699 38.96 27.2899C38.4 27.9099 36.09 27.6499 36.09 27.6499Z" fill="#D42F55"/>
</g>
<g style="mix-blend-mode:multiply" opacity="0.3">
<path d="M30.3497 10.2C29.7297 10.34 29.0797 18.5 30.3497 24.02C31.6197 29.54 32.7797 25.08 33.0097 23.93C33.2297 22.79 33.5497 12.89 33.9497 11.84C34.3397 10.78 30.3597 10.2 30.3597 10.2H30.3497Z" fill="#D42F55"/>
</g>
<g style="mix-blend-mode:multiply" opacity="0.3">
<path d="M27.0796 8.27004C27.1196 7.71004 21.8496 6.31003 21.9296 6.48003C22.0096 6.65003 24.8896 22.64 25.5996 24.5C26.3096 26.36 26.4696 17.71 27.0696 8.27004H27.0796Z" fill="#D42F55"/>
</g>
<path d="M40.7397 23.8C40.7397 23.8 41.6797 19.75 43.3297 18.13C44.9797 16.51 46.4797 16.8 46.4797 16.8C46.4797 16.8 44.9697 16.14 42.9197 18.11C40.8697 20.08 40.7397 23.8 40.7397 23.8Z" fill="#FF6500"/>
<path d="M35.0299 22.9399C35.0299 22.9399 35.1099 15.49 35.2899 13.72C35.4699 11.95 35.5599 11.2 35.5599 11.2C35.5599 11.2 33.9399 13.5499 35.0299 22.9399Z" fill="#FF6500"/>
<path d="M41.7396 1.20996L42.8796 2.55996C42.8796 2.55996 41.6496 3.03996 41.7396 1.20996Z" fill="#E23100"/>
<path d="M36.4897 0.640015C36.4897 0.640015 38.6297 1.51001 41.1197 1.12001C41.1197 1.12001 38.7597 2.66001 36.4897 0.640015Z" fill="#E23100"/>
<path d="M54.0198 8.07996C54.0198 8.07996 54.5298 9.59995 54.4198 9.90995C54.2998 10.21 53.7798 11.04 53.7798 11.04C53.7798 11.04 54.9498 9.36995 54.9898 9.25995C55.0298 9.14995 54.0198 8.08995 54.0198 8.08995V8.07996Z" fill="#97001A"/>
<g style="mix-blend-mode:multiply" opacity="0.8">
<path d="M24.6699 24.26C24.6699 24.26 25.6499 27.37 36.0799 27.46C46.5099 27.55 47.9499 24.75 47.9499 24.75L47.6799 26.64C47.6799 26.64 39.0299 29.48 25.0599 27.16L24.6699 24.25V24.26Z" fill="#D42F55"/>
</g>
<path opacity="0.5" d="M35.8699 106.67C16.8499 105.37 0.579861 93.8599 4.93986 73.5499C6.05986 68.3299 8.07986 64.2499 10.4999 61.0199C17.4699 51.6599 27.7399 49.4299 29.1399 47.5899C31.0199 45.0999 30.3499 41.1799 30.3499 41.1799H41.3999C41.3999 41.1799 40.7299 45.1099 42.6099 47.5899C44.0599 49.4999 55.0699 51.8299 62.0299 62.1199C64.0999 65.1699 65.8099 68.9099 66.8099 73.5499C71.1699 93.8599 54.8899 105.37 35.8799 106.67H35.8699Z" fill="url(#paint4_radial_1699_3817)"/>
<path d="M35.8699 106.67C16.8499 105.37 0.579861 93.86 4.93986 73.55C6.05986 68.33 8.07986 64.25 10.4999 61.02L36.9199 70.19L62.0099 62.12C64.0799 65.17 65.7899 68.91 66.7899 73.55C71.1499 93.86 54.8699 105.37 35.8599 106.67H35.8699Z" fill="url(#paint5_linear_1699_3817)"/>
<g style="mix-blend-mode:multiply" opacity="0.2">
<path d="M7.14965 66.75C10.5097 61.02 24.9096 71.43 35.5296 85.95C46.1496 100.47 52.5197 89.47 57.1297 80.46C61.7497 71.45 60.6296 91.79 54.4996 98.26C48.3596 104.72 64.0396 97.27 66.9196 85.46C69.7896 73.64 62.0296 62.12 62.0296 62.12C62.0296 62.12 64.7496 70.46 59.6996 72.76C54.6496 75.06 31.8096 70.48 22.9496 66.75C14.0996 63.02 10.4996 61.02 10.4996 61.02C10.4996 61.02 8.17965 64.11 7.13965 66.75H7.14965Z" fill="#9A7AFF"/>
</g>
<path d="M12.2295 60.1899C4.05954 59.7399 25.0795 71.6399 47.1195 73.9199C69.1695 76.2099 63.4595 63.2099 60.4895 60.0499C57.5195 56.8899 43.3195 60.3299 32.1195 61.0099C22.9095 61.5699 15.3395 60.3499 12.2295 60.1799V60.1899Z" fill="url(#paint6_linear_1699_3817)"/>
<g style="mix-blend-mode:soft-light" opacity="0.3">
<path d="M9.05972 94.3999C1.04972 73.6999 31.4597 98.6199 41.7197 100.65C51.9897 102.68 56.4997 100.12 56.4997 100.12C56.4997 100.12 44.1297 108.27 31.1897 106.14C18.2497 104.01 9.04973 94.3999 9.04973 94.3999H9.05972Z" fill="white"/>
</g>
<g style="mix-blend-mode:multiply" opacity="0.3">
<path d="M4.22949 79.05C4.22949 79.05 6.23949 106.03 35.5295 106.03C64.8195 106.03 67.5595 79.58 67.5595 79.58C67.5595 79.58 68.2195 107.32 35.8795 107.32C3.53949 107.32 4.23949 79.04 4.23949 79.04L4.22949 79.05Z" fill="#9A3792"/>
</g>
<path d="M41.0395 111.33C38.1295 110.5 51.9995 105.96 59.6995 99.85C67.3995 93.74 60.7995 110.59 41.0395 111.33Z" fill="white"/>
<path d="M2.5897 70.46C1.8297 76.37 9.07971 62.05 11.6197 58.09C14.1597 54.14 3.8297 60.86 2.5897 70.46Z" fill="white"/>
<path d="M13.0299 56.55C12.0499 56.45 14.2699 53.85 15.1599 53.85C16.0499 53.85 14.2699 56.68 13.0299 56.55Z" fill="white"/>
<path d="M62.5298 58.6799C61.0198 58.8799 65.5398 66.0299 67.1298 71.3899C68.7198 76.7499 70.5398 72.5399 70.1398 68.6899C69.7398 64.8399 65.1398 58.3299 62.5298 58.6799Z" fill="white"/>
<g style="mix-blend-mode:multiply" opacity="0.5">
<path d="M25.7797 47.11C29.9997 45.93 27.1497 50.18 35.5297 52.42C43.9097 54.66 45.5097 49.47 45.0097 46.04C44.4997 42.62 47.0897 40.33 47.0897 40.33C47.0897 40.33 38.1397 42.53 25.6797 40.33C25.6797 40.33 29.0197 43.92 25.7797 47.11Z" fill="#9A376D"/>
</g>
<path style="mix-blend-mode:screen" d="M12.7896 96.08C12.7896 96.08 0.69961 87.3 7.26961 69.64C12.1296 56.6 21.9296 52.73 21.9296 52.73C21.9296 52.73 25.8396 52.41 26.3096 67.17C26.7796 81.93 19.4496 96.4 12.7796 96.08H12.7896Z" fill="url(#paint7_linear_1699_3817)"/>
<path d="M16.4895 65.3199C16.4895 65.3199 27.0695 71.36 43.6095 74.41C60.1395 77.45 62.6495 70.2999 62.6495 70.2999C62.6495 70.2999 58.5195 74.0999 44.9995 72.9399C31.4795 71.7699 16.4795 65.3299 16.4795 65.3299L16.4895 65.3199Z" fill="#FF81BF"/>
<g style="mix-blend-mode:soft-light">
<path d="M37.3498 73.0599C36.2298 72.3199 42.9898 72.3799 46.4198 73.3199C49.8398 74.2599 47.5598 75.0199 46.2298 74.8199C44.8998 74.6299 37.3498 73.0599 37.3498 73.0599Z" fill="white"/>
</g>
<g style="mix-blend-mode:multiply" opacity="0.2">
<path d="M24.1398 68.8401C21.4298 67.7101 34.4198 83.9401 40.6398 90.9701C46.8598 98.0001 52.5298 85.8701 55.7098 80.4701C58.8998 75.0701 61.2898 72.5601 61.2898 72.5601C61.2898 72.5601 53.3198 75.5101 44.9098 74.6301C36.4998 73.7401 24.1398 68.8501 24.1398 68.8501V68.8401Z" fill="#DE0098"/>
</g>
<g style="mix-blend-mode:multiply" opacity="0.5">
<path d="M36.3797 113.05C9.21972 110.52 0.819707 93.47 0.699707 79.09C0.789707 80.28 1.65971 109.96 35.6097 111.93C70.2697 113.93 71.7997 74.39 71.7997 74.39C73.5897 89.47 66.5797 110.24 36.3797 113.06V113.05Z" fill="#9A376D"/>
</g>
<g style="mix-blend-mode:multiply" opacity="0.2">
<path d="M27.0799 72.06C13.5599 64.35 15.8299 79.36 20.7999 88.33C25.7799 97.29 25.1599 84.57 30.3399 85.27C35.5199 85.97 35.1399 93.29 40.6299 97.3C46.1199 101.31 32.2099 104.47 28.7699 99.69C25.3299 94.91 30.9799 95.16 31.4699 96.1C31.9599 97.04 38.8699 100.96 34.7099 93.73C30.5499 86.5 27.8899 90.66 25.2399 94.91C22.5799 99.16 16.5599 95.35 11.2499 82.87C5.93986 70.39 8.76986 63.39 11.2499 63.21C13.7299 63.03 23.0299 69.09 35.5099 73.19C47.9899 77.29 33.8499 79.87 27.0699 72.07L27.0799 72.06Z" fill="#DE0098"/>
</g>
<g style="mix-blend-mode:soft-light">
<path d="M25.0798 104.93C16.8698 98.94 30.9198 99.38 43.5498 101.46C56.1798 103.54 41.3398 108.88 25.0798 104.93Z" fill="#FF83FF"/>
</g>
<path d="M47.0899 53.85C40.8199 55.01 45.9799 65.77 52.3499 70.24C58.7299 74.71 60.5399 64.18 58.1099 59.74C55.6799 55.3 48.7699 53.54 47.0899 53.85Z" fill="white"/>
<path d="M23.8596 55.2699C23.9296 51.7499 18.0396 55.77 17.6496 58.08C17.2596 60.39 23.7896 58.4599 23.8596 55.2699Z" fill="white"/>
<g style="mix-blend-mode:soft-light">
<path d="M47.6299 48.47C45.8599 48.82 53.5899 51.91 57.4899 55.21C61.3899 58.51 56.0699 49.77 47.6299 48.47Z" fill="white"/>
</g>
<g style="mix-blend-mode:soft-light">
<path d="M6.78946 90.85C1.61946 83.12 6.18946 101.33 17.8895 107.32C29.5895 113.31 38.5495 109.16 39.0695 108.18C39.5895 107.2 28.1795 107.38 20.1195 104.02C12.0595 100.66 6.78946 90.86 6.78946 90.86V90.85Z" fill="#75FFFF"/>
</g>
<g style="mix-blend-mode:multiply" opacity="0.4">
<path d="M59.77 74.38C63.74 70.6 64.55 67.4 64.67 67.17C64.8 66.94 70.06 77.38 66.17 85.26C62.29 93.13 60.6499 94.08 59.7599 91.51C58.8799 88.93 61.96 77.72 58.77 77.82C55.58 77.92 52.46 90.19 47.35 90.97C42.24 91.75 42.59 83.92 45.78 79.98C48.97 76.04 47.6 82.43 50.41 80.94C53.22 79.46 53.64 75.7 42.86 75.16C32.08 74.62 36.72 82.86 40.72 79.98C44.72 77.1 40.56 88.13 39.07 88.33C37.58 88.53 35.15 84.45 28.78 76.53C22.41 68.61 19.73 68.79 17.11 72.06C14.49 75.33 21.14 87.37 17.11 87.79C13.08 88.2 8.93995 79.51 8.82995 71.88C8.70995 64.24 8.75995 63.59 10.4499 63.21C12.14 62.83 26.62 72.3 40.63 73.94C54.64 75.58 59.7599 74.4 59.7599 74.4L59.77 74.38Z" fill="#DE0098"/>
</g>
<path d="M8.28949 79.26C5.42949 77.21 5.41949 84.34 7.09949 85.97C8.77949 87.6 10.8895 81.12 8.28949 79.26Z" fill="white"/>
<path d="M26.6197 41.1699C24.3597 40.3499 23.7497 43.7999 31.2697 46.0999C38.7997 48.3999 47.1897 44.6799 47.9297 43.1799C48.6697 41.6799 47.3497 40.6899 46.8197 40.5899C46.2897 40.4899 45.4397 42.4199 45.3497 42.8699C45.2597 43.3099 39.9497 44.7699 34.2797 44.3299C28.6097 43.8899 27.4197 42.7399 27.1997 42.1999C26.9797 41.6699 26.6197 41.1599 26.6197 41.1599V41.1699Z" fill="url(#paint8_linear_1699_3817)"/>
<path d="M26.7599 43.1C24.5499 42.3 21.9399 48.29 33.5299 50.32C41.7399 51.75 47.9299 47.6 47.9299 45.76C47.9299 44.15 45.4499 44.19 44.9999 44.29C44.5499 44.39 45.3899 45.85 45.3899 45.85C45.3899 45.85 38.2599 48.61 33.6999 47.67C29.1399 46.73 27.7099 45.37 27.5699 44.84C27.4399 44.31 27.2299 43.28 26.7499 43.11L26.7599 43.1Z" fill="url(#paint9_linear_1699_3817)"/>
<g style="mix-blend-mode:soft-light" opacity="0.6">
<path d="M33.0797 48.02C31.7497 48.91 36.8297 50.82 40.3397 49.97C43.8497 49.11 45.9197 47.3 45.8897 46.56C45.8597 45.81 40.0197 47.82 37.5397 47.97C35.0597 48.12 33.0797 48.03 33.0797 48.03V48.02Z" fill="#FFB192"/>
</g>
<g style="mix-blend-mode:soft-light" opacity="0.6">
<path d="M31.5697 44.36C30.8597 44.96 33.3097 46.04 37.7097 46.19C42.1097 46.34 45.2997 44.39 45.4097 43.74C45.5297 43.09 39.5997 44.54 37.4997 44.54C35.3997 44.54 31.9497 44.04 31.5697 44.36Z" fill="#FFB192"/>
</g>
<g style="mix-blend-mode:multiply" opacity="0.5">
<path d="M39.0795 59.1C38.5595 59.15 44.6095 77.6 45.4095 86.89C46.2895 97.13 60.8495 94.33 67.5095 84.71C74.4295 74.7 65.5095 63.18 65.5095 63.18L39.0795 59.1Z" fill="#9A376D"/>
</g>
<path d="M47.9299 56.7201C46.8599 54.6401 51.1799 52.7601 52.1099 52.9801C53.0399 53.2001 52.8299 53.8601 52.8299 53.8601C52.8299 53.8601 53.1099 53.3601 52.4199 52.6701C51.7299 51.9801 50.3099 51.6301 48.0999 52.9201C45.8899 54.2101 47.1099 56.3801 47.9299 56.7201Z" fill="#CF4060"/>
<path d="M64.6297 78.1101L65.0397 78.4001C61.0397 80.2001 56.7997 81.7001 54.8197 82.0301C51.3897 82.6001 49.9697 82.0901 49.5497 81.8701C49.4897 81.8401 49.4397 81.8201 49.4097 81.7901L66.4497 75.3101C65.8297 75.6601 65.2797 76.6301 64.9597 77.3301C64.7597 77.7801 64.6397 78.1101 64.6397 78.1101H64.6297Z" fill="#CF4060"/>
<path d="M69.11 76.41C69.02 76.3 68.78 76.05 68.47 75.8C68.01 75.43 67.37 75.06 66.75 75.2L74.1 72.4C73.95 73.44 71.88 74.91 69.11 76.4V76.41Z" fill="#CF4060"/>
<path d="M49.2999 57.6C48.0799 57.3 46.6299 55.41 46.8899 54.35C47.2199 52.97 50.7799 51.84 52.4199 52.85C54.0599 53.86 50.5398 57.9 49.2898 57.6H49.2999ZM66.7499 75.2C67.3699 75.06 68.0099 75.43 68.4699 75.8C71.4699 74.42 73.7099 73.14 74.0899 72.4C74.3099 71.95 74.0199 70.95 73.3799 69.58C71.1999 69.41 71.7099 68.45 72.4499 67.75C68.6699 60.89 59.7999 49.14 57.9699 48.41C55.5399 47.42 39.5699 55.47 38.4099 57.36C37.2699 59.2 47.7299 80.38 49.4099 81.78C49.4399 81.81 49.4899 81.83 49.5499 81.86C50.9899 82.41 58.5799 79.95 64.9499 77.32C65.2699 76.62 65.8199 75.64 66.4399 75.3L66.7199 75.21C66.7199 75.21 66.7199 75.21 66.7399 75.2H66.7499Z" fill="#FFBDB3"/>
<g style="mix-blend-mode:multiply" opacity="0.5">
<path d="M66.75 75.2C67.37 75.05 68.01 75.4301 68.48 75.8001C71.48 74.4201 73.73 73.14 74.1 72.4C74.32 71.96 74.03 70.95 73.39 69.58C71.2 69.41 71.72 68.46 72.46 67.76C68.68 60.89 59.81 49.1501 57.98 48.4101C55.55 47.4201 39.58 55.47 38.42 57.35C37.27 59.2 47.74 80.37 49.42 81.78C49.46 81.8 49.5 81.83 49.57 81.85C51 82.4 58.6 79.94 64.96 77.31C65.29 76.61 65.84 75.63 66.46 75.28L66.73 75.1901C66.73 75.1901 66.73 75.1901 66.75 75.1901V75.2ZM63.96 75.9C61.84 79.6 57.55 80.1001 53.86 80.3001C50.18 80.5001 44.73 74.51 44.41 71.38C44.09 68.24 39.33 57.96 40.97 56.1C42.61 54.24 55.49 47.38 58.35 49.46C58.35 49.46 60.97 52.3201 64.39 57.4101C67.82 62.5101 73.19 70.79 72.67 72.46C72.15 74.14 66.09 72.21 63.97 75.9H63.96Z" fill="#FFB4BA"/>
</g>
<g style="mix-blend-mode:multiply" opacity="0.3">
<path d="M58.4299 77.7001C53.1999 79.7401 46.6599 70.8301 44.1299 67.5101C41.5899 64.1901 48.7199 58.5601 54.2699 55.6301C59.8199 52.7001 64.6599 57.8401 67.6499 63.9701C70.6399 70.1001 62.9699 75.9201 58.4299 77.7001Z" fill="#F96FFF"/>
</g>
<path d="M61.6597 61.68C61.6597 64.42 60.6297 67.91 59.7397 70.24C59.7397 70.24 51.5897 70.6 48.5097 67.99C47.7197 67.32 47.2697 66.45 47.3797 65.32C47.9297 59.83 53.4297 61.86 54.5097 63.2C54.5097 63.2 52.9397 58.07 58.2997 57.62C60.8297 57.41 61.6697 59.24 61.6697 61.69L61.6597 61.68Z" fill="#FF0064"/>
<path d="M56.2501 59.1001C55.7801 60.0901 59.7401 60.7101 60.4101 61.4701C61.0701 62.2201 60.9801 59.6801 60.1401 58.6701C59.3001 57.6601 56.7401 58.0701 56.2501 59.1101V59.1001Z" fill="white"/>
<path d="M50.1401 62.89C49.6001 63.29 50.0501 63.69 50.9301 63.38C51.8201 63.07 50.1401 62.89 50.1401 62.89Z" fill="white"/>
<g style="mix-blend-mode:multiply" opacity="0.5">
<path d="M61.6598 61.6901C61.6598 64.4201 60.6298 67.9101 59.7398 70.2401C59.7398 70.2401 51.5898 70.6001 48.5098 67.9901C48.9398 68.1601 53.0598 69.7701 56.9998 69.2101C60.8898 68.6801 61.5898 62.4901 61.6598 61.6901Z" fill="#9A376D"/>
</g>
<path d="M69.1099 76.41C69.1099 76.41 67.4499 75.23 66.6199 75.57C65.7899 75.91 65.0399 78.4 65.0399 78.4L64.6299 78.11C64.6299 78.11 65.2699 75.64 66.4699 75.14C67.6699 74.64 69.0999 76.41 69.0999 76.41H69.1099Z" fill="#CF4060"/>
<path d="M65.0401 78.4001C65.0401 78.4001 64.8601 77.8801 64.8101 77.3901C64.7501 76.9101 65.8101 75.3901 66.1601 75.3201C66.5101 75.2601 65.0401 78.3901 65.0401 78.3901V78.4001Z" fill="#FFC4B6"/>
<path d="M48.7395 54.39C48.7395 54.39 51.7495 55.26 51.9495 51.83C52.1495 48.41 47.9895 48.64 36.0895 51.65C24.1895 54.67 20.1295 48.71 21.4895 45.9C22.8495 43.09 25.2095 45.17 26.0395 44.6C26.8695 44.03 26.4995 42.14 25.6795 41.79C24.8595 41.44 20.7495 41.17 18.7195 45.9C16.9095 50.13 22.0795 54.35 28.1595 55.04C34.2395 55.72 40.7295 52.36 44.2395 51.71C47.7595 51.06 47.2195 52.05 47.2195 52.05C47.2195 52.05 50.0695 52.34 48.7295 54.39H48.7395Z" fill="url(#paint10_linear_1699_3817)"/>
<g style="mix-blend-mode:soft-light" opacity="0.6">
<path d="M28.0397 52.47C25.7397 52.95 28.3897 54.26 32.8597 54.05C37.3297 53.83 43.8397 50.95 45.2397 50.45C46.6397 49.95 40.5897 50.41 34.9797 52.06C29.3697 53.7 28.0397 52.48 28.0397 52.48V52.47Z" fill="#FFB192"/>
</g>
<g style="mix-blend-mode:soft-light" opacity="0.6">
<path d="M49.8697 49.74C48.2897 50.18 49.5097 51.43 50.1397 52.47C50.7697 53.51 51.9297 52.23 51.6897 50.92C51.4497 49.61 49.8697 49.74 49.8697 49.74Z" fill="#FFB192"/>
</g>
<defs>
<linearGradient id="paint0_linear_1699_3817" x1="36.3798" y1="113.05" x2="36.3798" y2="40.33" gradientUnits="userSpaceOnUse">
<stop stop-color="#E8E5ED"/>
<stop offset="0.05" stop-color="#E5DDE9"/>
<stop offset="0.28" stop-color="#DABBDC"/>
<stop offset="0.46" stop-color="#D3A6D4"/>
<stop offset="0.59" stop-color="#D19FD1"/>
<stop offset="0.64" stop-color="#BE91C3"/>
<stop offset="0.72" stop-color="#A47FB0"/>
<stop offset="0.81" stop-color="#9272A2"/>
<stop offset="0.9" stop-color="#876A9A"/>
<stop offset="1" stop-color="#846898"/>
</linearGradient>
<linearGradient id="paint1_linear_1699_3817" x1="17.1296" y1="33.37" x2="54.4996" y2="33.37" gradientUnits="userSpaceOnUse">
<stop stop-color="#9082A9"/>
<stop offset="0.22" stop-color="#9385AB"/>
<stop offset="0.42" stop-color="#9C90B2"/>
<stop offset="0.6" stop-color="#ADA2BF"/>
<stop offset="0.79" stop-color="#C3BCD1"/>
<stop offset="0.96" stop-color="#E1DDE7"/>
<stop offset="1" stop-color="#E8E5ED"/>
</linearGradient>
<linearGradient id="paint2_linear_1699_3817" x1="25.0597" y1="34.4299" x2="47.1297" y2="34.4299" gradientUnits="userSpaceOnUse">
<stop stop-color="#A71100"/>
<stop offset="0.39" stop-color="#D83303"/>
<stop offset="1" stop-color="#EC5C11"/>
</linearGradient>
<linearGradient id="paint3_linear_1699_3817" x1="20.8398" y1="15.01" x2="55.1599" y2="15.01" gradientUnits="userSpaceOnUse">
<stop stop-color="#A71100"/>
<stop offset="0.39" stop-color="#D83303"/>
<stop offset="1" stop-color="#EC5C11"/>
</linearGradient>
<radialGradient id="paint4_radial_1699_3817" cx="0" cy="0" r="1" gradientUnits="userSpaceOnUse" gradientTransform="translate(36.0499 81.5399) scale(34.27 34.27)">
<stop stop-color="#E8E5ED"/>
<stop offset="0.14" stop-color="#E2DCE3"/>
<stop offset="0.42" stop-color="#DAD1D4"/>
<stop offset="0.66" stop-color="#D8CDD0"/>
<stop offset="0.68" stop-color="#D4C5CE"/>
<stop offset="0.75" stop-color="#C7ABC8"/>
<stop offset="0.83" stop-color="#BE99C5"/>
<stop offset="0.91" stop-color="#B88EC2"/>
<stop offset="1" stop-color="#B78BC2"/>
</radialGradient>
<linearGradient id="paint5_linear_1699_3817" x1="35.8699" y1="106.67" x2="35.8699" y2="61.02" gradientUnits="userSpaceOnUse">
<stop stop-color="#FF8D7E"/>
<stop offset="0.32" stop-color="#FF131A"/>
<stop offset="1" stop-color="#C50042"/>
</linearGradient>
<linearGradient id="paint6_linear_1699_3817" x1="10.4295" y1="66.4699" x2="63.4295" y2="66.4699" gradientUnits="userSpaceOnUse">
<stop stop-color="#FF6154"/>
<stop offset="1" stop-color="#FF5B9D"/>
</linearGradient>
<linearGradient id="paint7_linear_1699_3817" x1="5.31961" y1="74.41" x2="26.3396" y2="74.41" gradientUnits="userSpaceOnUse">
<stop offset="0.02" stop-color="#008DFE"/>
<stop offset="1"/>
</linearGradient>
<linearGradient id="paint8_linear_1699_3817" x1="25.1097" y1="43.7199" x2="48.1597" y2="43.7199" gradientUnits="userSpaceOnUse">
<stop stop-color="#5B1833"/>
<stop offset="1" stop-color="#6D2948"/>
</linearGradient>
<linearGradient id="paint9_linear_1699_3817" x1="24.8499" y1="46.81" x2="47.9299" y2="46.81" gradientUnits="userSpaceOnUse">
<stop stop-color="#5B1833"/>
<stop offset="1" stop-color="#6D2948"/>
</linearGradient>
<linearGradient id="paint10_linear_1699_3817" x1="18.3495" y1="48.38" x2="51.9595" y2="48.38" gradientUnits="userSpaceOnUse">
<stop stop-color="#5B1833"/>
<stop offset="1" stop-color="#6D2948"/>
</linearGradient>
</defs>
</svg>
