<svg width="85" height="93" viewBox="0 0 85 93" fill="none" xmlns="http://www.w3.org/2000/svg">
<path d="M84.26 19.3699C84.3 20.0899 83.62 26.2699 82.47 34.0099C82.47 34.0099 82.4 34.0599 82.28 34.1399C81.83 34.4899 80.67 35.4499 80.67 36.4699C80.67 37.2699 81.26 38.0599 81.68 38.5199C81.72 38.5499 81.74 38.5799 81.77 38.6099C81.53 40.1199 81.27 41.6699 81 43.2199C81 43.2699 81 43.3299 80.98 43.3799C80.95 43.5399 80.92 43.7099 80.89 43.8699C79.28 53.1299 77.24 62.3599 75.18 66.1899C70.51 74.8699 46.88 91.1699 45.38 91.4699C43.88 91.7699 37.54 92.3699 37.54 92.3699L78.52 13.7899C78.52 13.7899 79.81 14.6499 81.17 15.7599C82.64 16.9499 84.2 18.4299 84.26 19.3699Z" fill="url(#paint0_linear_1699_4008)"/>
<path d="M79.0398 17.68C79.0798 27.17 75.7998 50.98 72.0198 61.94C68.3098 72.69 43.4198 91.5 37.5398 92.37C35.4798 92.68 8.63982 73.29 3.65982 59.11C3.38982 58.33 3.17982 57.57 3.03982 56.83C1.00982 45.54 0.239814 26.99 0.879814 18.4C1.05981 16.12 1.31982 14.55 1.69982 13.98C2.47982 12.82 11.4098 14.35 18.8398 11.74C28.4298 8.35997 37.0698 0.849976 38.7698 0.849976C40.2698 0.849976 48.3398 8.84998 57.6598 11.78C66.9798 14.71 77.5398 12.58 78.5198 13.81C78.8598 14.25 79.0298 15.63 79.0398 17.69V17.68Z" fill="url(#paint1_linear_1699_4008)"/>
<g style="mix-blend-mode:soft-light" opacity="0.5">
<path d="M3.04001 47.0699C0.610007 50.7599 4.54001 63.0099 11.72 69.8599C18.9 76.7099 68.73 64.2399 71.17 60.3399C73.61 56.4399 78.32 31.9499 77.58 26.9399C76.85 21.9299 54.75 34.1099 36.16 41.0499C17.57 47.9799 4.17001 45.3599 3.04001 47.0699Z" fill="white"/>
</g>
<path d="M67.5598 27.49C66.8198 36.35 62.9298 55.08 61.2698 59.88C59.3498 65.47 42.9298 77.59 36.9798 79.39C36.3898 79.57 35.9098 79.65 35.5498 79.6C33.5098 79.37 15.5198 63 12.6298 55.04C11.3998 51.66 9.68977 39.48 9.57977 30.58C9.57977 30.58 9.57977 30.55 9.57977 30.54C9.55977 29.17 9.57976 27.9 9.63976 26.73C9.63976 26.69 9.63976 26.67 9.63976 26.64C9.80976 23.82 10.2498 21.72 11.0598 20.98C12.6298 19.54 19.2898 20.3 25.2298 18.56C31.9198 16.59 37.9598 12.21 39.9798 12.34C41.8698 12.46 47.3298 16.02 53.4598 18.39C59.5898 20.75 66.4198 21.91 67.3298 22.88C67.5298 23.09 67.6398 23.61 67.6598 24.4C67.6998 25.19 67.6598 26.24 67.5498 27.49H67.5598Z" fill="url(#paint2_linear_1699_4008)"/>
<g style="mix-blend-mode:multiply">
<path d="M37.53 92.3699C37.53 92.3699 48.54 88.3099 61.48 75.3699C74.42 62.4299 74.5 64.3499 75.09 65.3599C75.67 66.3599 67.74 76.3199 58.68 81.9499C49.62 87.5699 46.12 91.3999 44.67 91.5899C43.22 91.7799 37.52 92.3699 37.52 92.3699H37.53Z" fill="#DEA0BB"/>
</g>
<path d="M61.1398 59.49C59.1698 65.19 42.4298 77.56 36.3698 79.39C33.1498 78.17 19.6498 63.7 16.7598 56.87C13.8598 50.03 13.1898 26.17 13.6898 24.03C13.9498 22.96 20.1698 22.51 25.6098 20.36C25.9098 20.25 26.2198 20.12 26.5198 19.99C31.7198 17.84 37.2498 14.67 39.8798 14.75C42.6798 14.84 48.1598 18.33 54.7898 20.36C60.8298 22.22 66.7498 22.33 67.6798 23.29C67.9698 29.84 63.0798 53.9 61.1498 59.48L61.1398 59.49Z" fill="url(#paint3_radial_1699_4008)"/>
<path d="M25.5997 20.3699C25.5997 20.3699 20.9697 39.2299 26.2397 70.0199L27.7997 71.7399C27.7997 71.7399 24.4597 52.1299 24.2497 41.9699C24.0397 31.7999 26.1697 20.1599 26.1697 20.1599L25.6097 20.3799L25.5997 20.3699Z" fill="#8D001A"/>
<path d="M47.6699 17.63C47.6699 17.63 45.5399 33.63 45.7899 48.2C46.0399 62.77 46.7199 73.54 46.7199 73.54L48.1999 72.47C48.1999 72.47 46.0199 54.87 46.0399 45.23C46.0599 35.59 48.3399 22.19 48.3799 21.02C48.4199 19.85 47.6699 17.63 47.6699 17.63Z" fill="#8D001A"/>
<path d="M38.77 0.839966C38.77 0.839966 47.64 4.31997 49.89 5.73997C52.14 7.15997 58.82 13.12 66 13.26C66 13.26 52.37 13.3 38.77 0.839966Z" fill="url(#paint4_linear_1699_4008)"/>
<g style="mix-blend-mode:soft-light" opacity="0.5">
<path d="M72.1699 64.63C71.0099 64.11 74.0099 57.29 74.5099 55.23C75.0099 53.17 77.9799 53.65 78.4299 53.89C78.8799 54.14 76.4899 63.1 76.2299 63.78C75.9699 64.46 72.1699 64.63 72.1699 64.63Z" fill="white"/>
</g>
<g style="mix-blend-mode:multiply" opacity="0.7">
<path d="M82.2796 34.1399C81.8296 34.4899 80.6696 35.4499 80.6696 36.4699C80.6696 37.2699 81.2596 38.0599 81.6796 38.5199C81.3896 40.6199 81.1396 42.3199 80.9996 43.2199C80.9996 43.2699 80.9996 43.3299 80.9796 43.3799C80.9496 43.5399 80.9296 43.6599 80.9196 43.7499L80.8896 43.8699C80.3896 45.9899 75.9496 49.7399 77.0996 40.6699C78.2696 31.4299 78.8696 14.8699 81.1696 15.7599C81.1696 15.7599 83.1396 17.5499 83.6996 19.0999C84.0296 20.0099 83.1396 27.5899 82.2796 34.1399Z" fill="#DEA0BB"/>
</g>
<g style="mix-blend-mode:multiply" opacity="0.2">
<path d="M13.5297 73.3299C11.9497 71.6799 21.5897 71.3799 25.7597 73.5399C29.9297 75.6999 35.0497 80.7199 36.1597 80.8899C37.2697 81.0599 55.6397 68.1399 57.9797 66.5299C60.3197 64.9199 68.5097 62.9299 70.3397 63.7799C72.1697 64.6299 48.0997 86.8699 41.9397 89.6199C35.7697 92.3699 25.8097 86.0899 13.5397 73.3299H13.5297Z" fill="#DEA0BB"/>
</g>
<g style="mix-blend-mode:multiply" opacity="0.7">
<path d="M79.0396 17.68C79.0396 17.68 79.0396 17.65 79.0396 17.64C78.8196 14.93 76.3097 15.6 60.9097 13.13C45.4997 10.65 43.9397 5.02998 40.6197 4.13998C37.2997 3.24998 34.7797 4.24998 26.6497 9.36998C18.5297 14.49 1.73965 13.98 0.889648 18.39C1.06965 16.12 1.32965 14.55 1.70965 13.98C2.48965 12.82 11.4196 14.35 18.8496 11.74C28.4396 8.35997 37.0796 0.849976 38.7796 0.849976C40.2796 0.849976 48.3496 8.84998 57.6696 11.78C66.9896 14.71 77.5496 12.58 78.5296 13.81C78.8696 14.25 79.0397 15.63 79.0497 17.69L79.0396 17.68Z" fill="#DEC0CF"/>
</g>
<path d="M59.4497 77.35C59.4497 77.35 68.5797 69.61 71.9097 59.39C75.2397 49.16 78.7397 24.13 78.7397 24.13C78.7397 24.13 75.5997 54.09 72.0097 61.94C68.4197 69.79 59.4497 77.36 59.4497 77.36V77.35Z" fill="#F0DBD6"/>
<path d="M22.6999 68.49C22.6999 68.49 12.3799 57.42 10.3799 42.48C10.3799 42.48 11.2599 52.13 12.5999 55.88C13.9399 59.64 22.6999 68.48 22.6999 68.48V68.49Z" fill="#F0DBD6"/>
<g style="mix-blend-mode:multiply">
<path d="M37.5299 92.37C35.4699 92.68 8.6299 73.29 3.6499 59.11V59.09C3.6499 59.09 14.6099 78.5 37.5299 92.37Z" fill="#E6B7CB"/>
</g>
<g style="mix-blend-mode:multiply" opacity="0.3">
<path d="M25.1701 53.3999C25.1701 53.3999 22.8301 37.6199 27.6201 29.8699C32.4101 22.1199 45.6501 48.6899 46.0501 58.5699C46.4501 68.4599 46.5301 70.7899 46.0501 71.0199C45.5701 71.2499 41.4801 48.0599 34.5501 38.9599C27.6201 29.8599 26.2201 61.3399 26.2201 61.3399L25.1701 53.3899V53.3999Z" fill="#C00053"/>
<path d="M27.0798 67.29C27.0798 67.29 27.9798 51.29 31.3098 48.19C34.6498 45.09 44.3298 74.55 44.3298 74.55L42.9698 75.32C42.9698 75.32 35.9498 53.96 32.4198 53.88C28.8898 53.81 27.7898 71.73 27.7898 71.73L27.0698 67.28L27.0798 67.29Z" fill="#C00053"/>
<path d="M46.3801 38.47C46.3801 38.47 47.6701 52.33 50.1201 57.9C52.5801 63.47 62.8801 53.89 62.8801 53.89L63.5901 48.19C63.5901 48.19 55.5101 55.61 52.3701 53.08C49.2301 50.55 47.0601 31.1 47.0601 31.1L46.3701 38.47H46.3801Z" fill="#C00053"/>
<path d="M47.9102 24.5699C47.9102 24.5699 50.1302 42.1899 53.9202 46.5899C57.7002 50.9999 66.6602 42.3599 67.1902 29.8699C67.1902 29.8699 63.4802 49.1799 55.9802 46.3999C50.0502 44.1999 47.9202 23.1699 47.9202 23.1699V24.5699H47.9102Z" fill="#C00053"/>
<path d="M14.4499 44.77C15.0699 28.51 24.6199 26.21 24.6199 26.21L24.2799 29.23C24.2799 29.23 16.4599 36.03 14.8099 47.96L14.4399 44.76L14.4499 44.77Z" fill="#C00053"/>
<path d="M16.54 56.33C16.54 56.33 14.84 41.07 24.03 32.34L23.98 33.3C23.98 33.3 15.32 40.23 17.93 59.15L16.54 56.33Z" fill="#C00053"/>
</g>
<g style="mix-blend-mode:soft-light" opacity="0.5">
<path d="M28.8799 62.27C28.8799 62.27 30.1299 55.57 32.3599 54.95C34.5899 54.34 37.5399 61.16 37.5399 61.16C37.5399 61.16 34.5499 53.77 32.2699 53.61C29.9899 53.44 28.8799 62.27 28.8799 62.27Z" fill="white"/>
</g>
<g style="mix-blend-mode:soft-light" opacity="0.5">
<path d="M48.71 53.4C48.71 53.4 49.67 58.3 51.59 59.46C53.51 60.62 60.9 55.58 60.9 55.58C60.9 55.58 56.3 60.21 52.92 60.79C49.54 61.37 49.59 56.26 48.72 53.4H48.71Z" fill="white"/>
</g>
<g style="mix-blend-mode:soft-light" opacity="0.5">
<path d="M50.6899 38.96C50.6899 38.96 52.1999 46.67 54.9899 47.96C57.9799 49.35 60.6199 45.74 60.6199 45.74C60.6199 45.74 57.9599 48.4 55.6599 47.67C52.3099 46.61 50.6999 38.97 50.6999 38.97L50.6899 38.96Z" fill="white"/>
</g>
<g style="mix-blend-mode:multiply" opacity="0.5">
<path d="M67.56 27.49C65.25 27.88 47.5 20.46 41.73 18.39C35.61 16.2 30.46 28.49 15.18 27.33C13.53 27.21 12.23 33.24 10.39 32.43C9.94001 32.23 9.68001 31.54 9.57001 30.58C9.57001 30.58 9.57001 30.55 9.57001 30.54C9.44001 29.48 9.48001 28.11 9.63001 26.73C9.63001 26.69 9.63001 26.67 9.63001 26.64C9.90001 24.18 10.49 21.72 11.05 20.98C12.62 19.54 19.28 20.3 25.22 18.56C31.91 16.59 37.95 12.21 39.97 12.34C41.86 12.46 47.32 16.02 53.45 18.39C59.58 20.75 66.41 21.91 67.32 22.88C67.52 23.09 67.63 23.61 67.65 24.4C67.69 25.19 67.65 26.24 67.54 27.49H67.56Z" fill="#BE2F55"/>
</g>
<g style="mix-blend-mode:multiply" opacity="0.3">
<path d="M61.1398 59.49C59.1698 65.19 42.4298 77.56 36.3698 79.39C33.1498 78.17 19.6498 63.7 16.7598 56.87C13.8598 50.03 13.1898 26.17 13.6898 24.03C13.6898 24.03 14.3998 46.72 20.6298 56.81C26.8598 66.9 50.8998 63.75 57.3598 56.25C63.8298 48.75 60.2598 29.5 57.3598 25.71C54.4698 21.93 35.2098 17.99 28.7498 19.46C27.9998 19.63 27.2498 19.8 26.4998 19.99C31.6998 17.84 37.2298 14.67 39.8598 14.75C42.6598 14.84 48.1398 18.33 54.7698 20.36C60.8098 22.22 66.7298 22.33 67.6598 23.29C67.9498 29.84 63.0598 53.9 61.1298 59.48L61.1398 59.49Z" fill="#BE2F55"/>
</g>
<g style="mix-blend-mode:multiply" opacity="0.5">
<path d="M26.2397 70.02C26.2397 70.02 22.6997 56.69 22.6997 43.98C22.6997 33.83 25.3397 21.61 25.3397 21.61C25.3397 21.61 23.7697 32.24 23.7197 45.58C23.6697 58.92 26.2397 70.02 26.2397 70.02Z" fill="#BE2F55"/>
</g>
<g style="mix-blend-mode:multiply" opacity="0.5">
<path d="M47.6697 17.63C47.6697 17.63 44.9497 31.86 44.9497 46.38C44.9497 60.9 46.7097 73.54 46.7097 73.54C46.7097 73.54 44.1997 42.26 47.6597 17.63H47.6697Z" fill="#BE2F55"/>
</g>
<path d="M27.6196 73.33C27.6196 73.33 34.2296 77.52 36.5496 77.94C38.8696 78.36 50.1196 71.03 50.1196 71.03C50.1196 71.03 39.8396 79.62 36.2696 80.06C33.9896 80.34 27.6196 73.34 27.6196 73.34V73.33Z" fill="#DEDBCA"/>
<g style="mix-blend-mode:multiply" opacity="0.5">
<path d="M47.69 82.1899C42.38 81.0499 52.69 70.5899 56.94 68.3699C61.2 66.1499 60.53 73.4999 57.58 76.9599C54.63 80.4199 47.69 82.1899 47.69 82.1899Z" fill="#C4B3BB"/>
<path d="M61.9598 69.7799C60.4198 69.2999 62.0598 65.7499 64.2198 66.3699C66.3798 66.9899 64.1598 70.4599 61.9598 69.7799Z" fill="#C4B3BB"/>
<path d="M4.21978 18.38C0.529777 20.51 2.41978 26.93 4.30978 28.47C6.19978 30.01 9.36978 24.69 8.44978 20.99C7.52978 17.3 5.92978 17.39 4.20978 18.38H4.21978Z" fill="#C4B3BB"/>
<path d="M5.3596 31.7C4.9996 30.92 6.7696 28.67 7.7196 29.62C8.6696 30.57 6.4096 33.98 5.3596 31.7Z" fill="#C4B3BB"/>
</g>
<path d="M75.32 48.83C73.39 49.44 73.66 42.72 75.62 41.46C77.58 40.2 79.39 47.55 75.32 48.83Z" fill="#7F4B6E"/>
<path d="M10.29 44.1999C9.30004 42.9099 8.96004 40.0799 10.06 39.0499C11.16 38.0199 12.52 43.9199 11.45 44.3799C10.38 44.8399 10.29 44.2099 10.29 44.2099V44.1999Z" fill="#7F4B6E"/>
<g style="mix-blend-mode:multiply">
<path d="M74.3599 43.62C73.9699 45.36 75.4899 46.66 76.5099 46.6C77.5199 46.54 78.7399 44.68 77.4599 42.47C76.1799 40.26 74.5699 42.7 74.3699 43.62H74.3599Z" fill="#DEA0BB"/>
</g>
<path d="M73.9999 45.58C74.3199 45.18 73.9999 47.24 75.1999 47.75C76.4599 48.29 77.2699 46.57 77.4399 46.74C77.6099 46.91 75.8699 49.34 74.9899 49.34C73.7299 49.34 74.0099 45.57 74.0099 45.57L73.9999 45.58Z" fill="#C0A9AC"/>
<g style="mix-blend-mode:multiply">
<path d="M9.43994 40.3599C9.52994 42.4199 9.84994 42.9199 10.8399 43.1099C11.8299 43.2999 11.9199 40.6699 10.9899 39.5599C10.0599 38.4499 9.43994 40.3699 9.43994 40.3699V40.3599Z" fill="#DEA0BB"/>
</g>
<path d="M9.66967 42.98C9.66967 42.98 10.2897 44.21 11.0797 43.95C11.5897 43.78 11.6297 42.33 11.6297 42.33C11.8497 42.31 12.2097 44.46 11.3097 44.81C10.4097 45.16 9.89967 44.01 9.65967 42.98H9.66967Z" fill="#C0A9AC"/>
<path d="M8.54982 55.22C7.42982 54.42 6.70982 52.49 7.59982 51.66C8.49982 50.83 10.6098 54.79 9.66982 55.22C8.72982 55.65 8.54982 55.22 8.54982 55.22Z" fill="#996F8B"/>
<g style="mix-blend-mode:multiply">
<path d="M7.19971 52.6299C7.56971 54.0599 7.94971 54.3599 8.90971 54.3899C9.87971 54.4199 9.57971 52.58 8.54971 51.9C7.51971 51.22 7.19971 52.62 7.19971 52.62V52.6299Z" fill="#DEA0BB"/>
</g>
<path d="M7.78979 54.43C7.78979 54.43 8.54978 55.22 9.25978 54.96C9.71978 54.79 9.54979 53.78 9.54979 53.78C9.75979 53.75 10.3998 55.2 9.59978 55.54C8.79978 55.88 8.15979 55.13 7.77979 54.44L7.78979 54.43Z" fill="#C0A9AC"/>
<g style="mix-blend-mode:multiply" opacity="0.2">
<path d="M41.8198 3.64997C39.7398 2.50997 42.5298 10.63 46.3098 13.79C50.0898 16.96 63.4198 21.71 68.5298 22.03C73.6498 22.35 77.9198 15.95 78.0098 14.76C78.0898 13.57 72.3198 14.66 60.5798 12.34C48.8298 10.03 41.8198 3.64997 41.8198 3.64997Z" fill="#DEA0BB"/>
</g>
<g style="mix-blend-mode:soft-light" opacity="0.8">
<path d="M69.0999 25.7699C68.5399 22.0199 77.1299 17.4099 78.0199 16.2799C78.9099 15.1499 78.7099 22.6599 76.9099 24.7399C75.1099 26.8199 69.0999 25.7699 69.0999 25.7699Z" fill="white"/>
</g>
<path d="M26.1997 36.6999C25.4397 37.3499 24.8897 45.1899 25.2297 47.3199C26.0897 52.6399 31.7797 56.1699 33.2897 56.9499C34.8097 57.7399 41.5597 52.6299 42.8297 49.0999C44.6397 44.0599 43.8497 37.0099 43.2797 35.6099C42.6997 34.1899 34.1597 42.7599 32.5497 42.3499C30.9597 41.9499 27.2897 35.7799 26.2097 36.6999H26.1997Z" fill="#8D001A"/>
<path d="M43.4398 40.5599C43.0898 39.6799 37.2498 43.8499 36.0298 43.9999C34.8398 44.1499 32.5398 42.3399 32.5398 42.3399C32.5398 42.3399 28.6598 38.7399 28.2698 39.1999C27.8798 39.6499 27.2898 46.4599 28.2598 49.1999C29.1998 51.8499 33.6398 55.6099 33.9598 55.8199C35.1398 56.6199 45.6098 53.4399 43.4498 40.5599H43.4398Z" fill="#A92511"/>
<g style="mix-blend-mode:multiply" opacity="0.5">
<path d="M26.9795 36.8C25.6795 36.65 25.6195 40.47 26.2695 43.39C26.8995 46.19 27.6195 43.47 28.6495 43C29.6995 42.52 35.6395 50.53 36.9595 51.14C38.2895 51.76 42.7895 44.31 43.3295 42.44C43.8795 40.5 44.3595 36.18 43.2795 35.61C42.2095 35.04 35.2995 42.31 32.8295 42.17C30.4395 42.03 26.9795 36.81 26.9795 36.81V36.8Z" fill="#BE0E55"/>
</g>
<path d="M25.7495 49.2399C25.7495 49.2399 26.0695 51.6899 29.7095 55.2099C33.3295 58.7199 34.9195 58.4299 37.8095 55.7199C41.0195 52.7099 43.0095 48.5099 43.0095 48.5099C43.0095 48.5099 40.5895 52.3399 38.1195 54.3699C35.8295 56.2499 34.3795 57.4399 32.4595 56.4599C30.5595 55.4899 27.0595 52.3899 25.7495 49.2299V49.2399Z" fill="#FF7C48"/>
<defs>
<linearGradient id="paint0_linear_1699_4008" x1="55.44" y1="17.0399" x2="65.51" y2="88.6599" gradientUnits="userSpaceOnUse">
<stop stop-color="#97777D"/>
<stop offset="1" stop-color="#9C89A2"/>
</linearGradient>
<linearGradient id="paint1_linear_1699_4008" x1="36.0498" y1="1.21998" x2="48.6398" y2="90.8" gradientUnits="userSpaceOnUse">
<stop stop-color="#E0D9E1"/>
<stop offset="1" stop-color="#B9A4A8"/>
</linearGradient>
<linearGradient id="paint2_linear_1699_4008" x1="36.1298" y1="12.85" x2="45.3298" y2="78.29" gradientUnits="userSpaceOnUse">
<stop stop-color="#97777D"/>
<stop offset="1" stop-color="#9C89A2"/>
</linearGradient>
<radialGradient id="paint3_radial_1699_4008" cx="0" cy="0" r="1" gradientUnits="userSpaceOnUse" gradientTransform="translate(30.7598 34.55) scale(44.01 44.01)">
<stop stop-color="#CE5411"/>
<stop offset="1" stop-color="#B42B00"/>
</radialGradient>
<linearGradient id="paint4_linear_1699_4008" x1="51.26" y1="-0.920034" x2="53.5" y2="15.02" gradientUnits="userSpaceOnUse">
<stop stop-color="#97777D"/>
<stop offset="1" stop-color="#9C89A2"/>
</linearGradient>
</defs>
</svg>
